<?xml version="1.0" encoding="UTF-8" standalone="no"?>
<!-- Generator: Adobe Illustrator 23.0.0, SVG Export Plug-In . SVG Version: 6.00 Build 0)  -->

<svg
   version="1.1"
   id="svg100"
   x="0px"
   y="0px"
   viewBox="0 0 502681 383161"
   xml:space="preserve"
   sodipodi:docname="gateway (4).svg"
   inkscape:version="1.3 (0e150ed6c4, 2023-07-21)"
   width="502681"
   height="383161"
   xmlns:inkscape="http://www.inkscape.org/namespaces/inkscape"
   xmlns:sodipodi="http://sodipodi.sourceforge.net/DTD/sodipodi-0.dtd"
   xmlns="http://www.w3.org/2000/svg"
   xmlns:svg="http://www.w3.org/2000/svg"><defs
   id="defs349" />&#10;<style
   type="text/css"
   id="style1">&#10;	.st0{fill:none;}&#10;	.st1{fill:none;stroke:#CC0000;stroke-width:2;stroke-miterlimit:10;stroke-dasharray:6,6;}&#10;	.st2{fill:none;stroke:#000000;stroke-miterlimit:10;}&#10;	.st3{stroke:#000000;stroke-miterlimit:10;}&#10;	.st4{font-family:'ArialMT';}&#10;	.st5{font-size:11px;}&#10;	.st6{fill:#FFFFFF;stroke:#000000;}&#10;	.st7{fill:none;stroke:#000000;}&#10;	.st8{font-size:12px;}&#10;</style>&#10;<rect
   style="fill:#ffffff"
   id="rect1"
   width="709"
   height="619"
   x="1.4734347e-06"
   y="0" />&#10;<sodipodi:namedview
   bordercolor="#000000"
   borderopacity="0.25"
   id="namedview106"
   inkscape:current-layer="svg100"
   inkscape:cx="293.99398"
   inkscape:cy="258.84525"
   inkscape:deskcolor="#d1d1d1"
   inkscape:pagecheckerboard="0"
   inkscape:pageopacity="0.0"
   inkscape:showpageshadow="2"
   inkscape:window-height="1017"
   inkscape:window-maximized="1"
   inkscape:window-width="1920"
   inkscape:window-x="1072"
   inkscape:window-y="1028"
   inkscape:zoom="1.9915374"
   pagecolor="#ffffff">&#10;	</sodipodi:namedview>&#10;<g
   id="g105">&#10;	<g
   id="g2">&#10;		<path
   id="path2"
   pointer-events="stroke"
   class="st1"
   d="m 122.5,165.5 c 15.4,0 23.1,31.4 23.1,94.1 0,62.7 -7.7,94 -23.1,93.9" />&#10;	</g>&#10;	<g
   id="g4">&#10;		<path
   id="path3"
   pointer-events="stroke"
   class="st2"
   d="m 199.6,285.4 v 192.2 c 0,6.7 2.9,10 8.8,10 h 8.8" />&#10;		<path
   id="path4"
   pointer-events="all"
   class="st3"
   d="m 222.4,487.6 -7,3.5 1.8,-3.5 -1.8,-3.5 z" />&#10;	</g>&#10;	<g
   id="g6">&#10;		<g
   id="g5"
   transform="translate(-0.5,-0.5)">&#10;			<text
   transform="translate(114.7366,443.8)"
   class="st4 st5"
   id="text1">S</text>&#10;			<text
   transform="translate(122.0735,443.8)"
   class="st4 st5"
   id="text2">Q</text>&#10;			<text
   transform="translate(130.6296,443.8)"
   class="st4 st5"
   id="text3">L</text>&#10;			<text
   transform="translate(136.7473,443.8)"
   class="st4 st5"
   id="text4"> </text>&#10;			<text
   transform="translate(139.8035,443.8)"
   class="st4 st5"
   id="text5">Q</text>&#10;			<text
   transform="translate(148.3596,443.8)"
   class="st4 st5"
   id="text6">u</text>&#10;			<text
   transform="translate(154.4773,443.8)"
   class="st4 st5"
   id="text7">e</text>&#10;			<text
   transform="translate(160.595,443.8)"
   class="st4 st5"
   id="text8">r</text>&#10;			<text
   transform="translate(164.2581,443.8)"
   class="st4 st5"
   id="text9">y</text>&#10;			<text
   transform="translate(169.7581,443.8)"
   class="st4 st5"
   id="text10"> </text>&#10;			<text
   transform="translate(172.8142,443.8)"
   class="st4 st5"
   id="text11">C</text>&#10;			<text
   transform="translate(180.7581,443.8)"
   class="st4 st5"
   id="text12">a</text>&#10;			<text
   transform="translate(186.8757,443.8)"
   class="st4 st5"
   id="text13">l</text>&#10;			<text
   transform="translate(189.3196,443.8)"
   class="st4 st5"
   id="text14">l</text>&#10;			<text
   id="text15"
   transform="translate(191.7634,443.8)"
   class="st4 st5">s</text>&#10;		</g>&#10;	</g>&#10;	<g
   id="g7">&#10;		<circle
   id="ellipse6"
   pointer-events="all"
   class="st6"
   cx="238.5"
   cy="254"
   r="50" />&#10;		<circle
   id="ellipse7"
   pointer-events="all"
   class="st7"
   cx="238.5"
   cy="254"
   r="46" />&#10;	</g>&#10;	<g
   id="g10">&#10;		<path
   id="path9"
   pointer-events="stroke"
   class="st1"
   d="m 323.5,386.5 c 0,-3.3 26.6,-4.9 79.5,-4.9 53,0 79.5,1.6 79.5,4.9" />&#10;	</g>&#10;	<g
   id="g11">&#10;		<path
   id="path10"
   pointer-events="stroke"
   class="st2"
   d="m 380.5,275.8 v 173.5 c 0,6.7 -3.3,10 -10,10 h -47.8" />&#10;		<path
   id="path11"
   pointer-events="all"
   class="st3"
   d="m 317.5,459.3 7,-3.5 -1.8,3.5 1.8,3.5 z" />&#10;	</g>&#10;	<g
   id="g13">&#10;		<g
   id="g12"
   transform="translate(-0.5,-0.5)">&#10;			<text
   transform="translate(294.7366,337.8)"
   class="st4 st5"
   id="text16">S</text>&#10;			<text
   transform="translate(302.0735,337.8)"
   class="st4 st5"
   id="text17">Q</text>&#10;			<text
   transform="translate(310.6296,337.8)"
   class="st4 st5"
   id="text18">L</text>&#10;			<text
   transform="translate(316.7473,337.8)"
   class="st4 st5"
   id="text19"> </text>&#10;			<text
   transform="translate(319.8035,337.8)"
   class="st4 st5"
   id="text20">Q</text>&#10;			<text
   transform="translate(328.3596,337.8)"
   class="st4 st5"
   id="text21">u</text>&#10;			<text
   transform="translate(334.4773,337.8)"
   class="st4 st5"
   id="text22">e</text>&#10;			<text
   transform="translate(340.595,337.8)"
   class="st4 st5"
   id="text23">r</text>&#10;			<text
   transform="translate(344.2581,337.8)"
   class="st4 st5"
   id="text24">y</text>&#10;			<text
   transform="translate(349.7581,337.8)"
   class="st4 st5"
   id="text25"> </text>&#10;			<text
   transform="translate(352.8142,337.8)"
   class="st4 st5"
   id="text26">C</text>&#10;			<text
   transform="translate(360.7581,337.8)"
   class="st4 st5"
   id="text27">a</text>&#10;			<text
   transform="translate(366.8757,337.8)"
   class="st4 st5"
   id="text28">l</text>&#10;			<text
   transform="translate(369.3196,337.8)"
   class="st4 st5"
   id="text29">l</text>&#10;			<text
   id="text30"
   transform="translate(371.7634,337.8)"
   class="st4 st5">s</text>&#10;		</g>&#10;	</g>&#10;	<g
   id="g14">&#10;		<path
   id="path13"
   pointer-events="stroke"
   class="st2"
   d="M 398.5,204 V 47.4 c 0,-6.7 -3.3,-10 -10,-10 h -33.9 c -6.7,0 -10,0.5 -10,1.5 v 1.5" />&#10;		<path
   id="path14"
   pointer-events="all"
   class="st3"
   d="m 398.5,210.8 -4.5,-9 4.5,2.3 4.5,-2.3 z" />&#10;	</g>&#10;	<g
   id="g16">&#10;		<g
   id="g15"
   transform="translate(-0.5,-0.5)">&#10;			<text
   transform="translate(408.405,113.8)"
   class="st4 st5"
   id="text31">P</text>&#10;			<text
   transform="translate(415.7419,113.8)"
   class="st4 st5"
   id="text32">a</text>&#10;			<text
   transform="translate(421.8596,113.8)"
   class="st4 st5"
   id="text33">g</text>&#10;			<text
   transform="translate(427.9773,113.8)"
   class="st4 st5"
   id="text34">e</text>&#10;			<text
   id="text35"
   transform="translate(434.095,113.8)"
   class="st4 st5">s</text>&#10;		</g>&#10;	</g>&#10;	<g
   id="g17">&#10;		<path
   id="path16"
   pointer-events="stroke"
   class="st2"
   d="M 474.8,262.5 H 624 c 6.7,0 10,-1.4 10,-4.1 v -4.1" />&#10;		<path
   id="path17"
   pointer-events="all"
   class="st3"
   d="m 634,247.5 4.5,9 -4.5,-2.3 -4.5,2.3 z" />&#10;	</g>&#10;	<g
   id="g19">&#10;		<g
   id="g18"
   transform="translate(-0.5,-0.5)">&#10;			<text
   transform="translate(524.2401,258.7999)"
   class="st4 st5"
   id="text36">R</text>&#10;			<text
   transform="translate(532.184,258.7999)"
   class="st4 st5"
   id="text37">e</text>&#10;			<text
   transform="translate(538.3016,258.7999)"
   class="st4 st5"
   id="text38">s</text>&#10;			<text
   transform="translate(543.8016,258.7999)"
   class="st4 st5"
   id="text39">p</text>&#10;			<text
   transform="translate(549.9193,258.7999)"
   class="st4 st5"
   id="text40">o</text>&#10;			<text
   transform="translate(556.037,258.7999)"
   class="st4 st5"
   id="text41">n</text>&#10;			<text
   transform="translate(562.1547,258.7999)"
   class="st4 st5"
   id="text42">s</text>&#10;			<text
   transform="translate(567.6547,258.7999)"
   class="st4 st5"
   id="text43">e</text>&#10;		</g>&#10;	</g>&#10;	<g
   id="g20">&#10;		<path
   id="path19"
   pointer-events="stroke"
   class="st2"
   d="m 472.7,270.5 h 157.2 c 6.7,0 10,3.3 10,10 v 13.3" />&#10;		<path
   id="path20"
   pointer-events="all"
   class="st3"
   d="m 639.9,300.6 -4.5,-9 4.5,2.3 4.5,-2.3 z" />&#10;	</g>&#10;	<g
   id="g22">&#10;		<g
   id="g21"
   transform="translate(-0.5,-0.5)">&#10;			<text
   transform="translate(525.2401,284.7999)"
   class="st4 st5"
   id="text44">R</text>&#10;			<text
   transform="translate(533.184,284.7999)"
   class="st4 st5"
   id="text45">e</text>&#10;			<text
   transform="translate(539.3016,284.7999)"
   class="st4 st5"
   id="text46">s</text>&#10;			<text
   transform="translate(544.8016,284.7999)"
   class="st4 st5"
   id="text47">p</text>&#10;			<text
   transform="translate(550.9193,284.7999)"
   class="st4 st5"
   id="text48">o</text>&#10;			<text
   transform="translate(557.037,284.7999)"
   class="st4 st5"
   id="text49">n</text>&#10;			<text
   transform="translate(563.1547,284.7999)"
   class="st4 st5"
   id="text50">s</text>&#10;			<text
   transform="translate(568.6547,284.7999)"
   class="st4 st5"
   id="text51">e</text>&#10;		</g>&#10;	</g>&#10;	<g
   id="g23">&#10;		<circle
   id="ellipse22"
   pointer-events="all"
   class="st6"
   cx="425.5"
   cy="254"
   r="50" />&#10;		<circle
   id="ellipse23"
   pointer-events="all"
   class="st7"
   cx="425.5"
   cy="254"
   r="46" />&#10;	</g>&#10;	<g
   id="g26">&#10;		<path
   id="path25"
   pointer-events="stroke"
   class="st2"
   d="m 636.4,188.7 v -8.6 c 0,-5.7 -3.3,-8.6 -10,-8.6 H 471.1 c -6.7,0 -10,3.3 -10,10 v 28.7" />&#10;		<path
   id="path26"
   pointer-events="all"
   class="st3"
   d="m 461.1,217 -4.5,-9 4.5,2.3 4.5,-2.3 z" />&#10;	</g>&#10;	<g
   id="g28">&#10;		<g
   id="g27"
   transform="translate(-0.5,-0.5)">&#10;			<text
   transform="translate(521.7058,193.7999)"
   class="st4 st5"
   id="text52">R</text>&#10;			<text
   transform="translate(529.6497,193.7999)"
   class="st4 st5"
   id="text53">e</text>&#10;			<text
   transform="translate(535.7673,193.7999)"
   class="st4 st5"
   id="text54">q</text>&#10;			<text
   transform="translate(541.885,193.7999)"
   class="st4 st5"
   id="text55">u</text>&#10;			<text
   transform="translate(548.0027,193.7999)"
   class="st4 st5"
   id="text56">e</text>&#10;			<text
   transform="translate(554.1204,193.7999)"
   class="st4 st5"
   id="text57">s</text>&#10;			<text
   transform="translate(559.6204,193.7999)"
   class="st4 st5"
   id="text58">t</text>&#10;			<text
   transform="translate(562.6765,193.7999)"
   class="st4 st5"
   id="text59">e</text>&#10;			<text
   id="text60"
   transform="translate(568.7942,193.7999)"
   class="st4 st5">s</text>&#10;		</g>&#10;	</g>&#10;	<g
   id="g29">&#10;		<rect
   id="rect28"
   x="582.5"
   y="187.5"
   pointer-events="all"
   class="st6"
   width="103"
   height="56" />&#10;	</g>&#10;	<g
   id="g31">&#10;		<g
   id="g30"
   transform="translate(-0.5,-0.5)">&#10;			<text
   transform="translate(621.3258,220.9)"
   class="st4 st8"
   id="text61">U</text>&#10;			<text
   transform="translate(629.9918,220.9)"
   class="st4 st8"
   id="text62">s</text>&#10;			<text
   transform="translate(635.9918,220.9)"
   class="st4 st8"
   id="text63">e</text>&#10;			<text
   transform="translate(642.6656,220.9)"
   class="st4 st8"
   id="text64">r</text>&#10;		</g>&#10;	</g>&#10;	<g
   id="g32">&#10;		<path
   id="path31"
   pointer-events="stroke"
   class="st2"
   d="m 268.5,537.3 v 42.2 c 0,6.7 3.3,10 10,10 h 259.7 c 6.7,0 10,-3.3 10,-10 v -34.9" />&#10;		<path
   id="path32"
   pointer-events="all"
   class="st3"
   d="m 548.2,539.3 3.5,7 -3.5,-1.8 -3.5,1.8 z" />&#10;	</g>&#10;	<g
   id="g34">&#10;		<g
   id="g33"
   transform="translate(-0.5,-0.5)">&#10;			<text
   transform="translate(383.3886,609.8)"
   class="st4 st5"
   id="text65">D</text>&#10;			<text
   transform="translate(391.3324,609.8)"
   class="st4 st5"
   id="text66">a</text>&#10;			<text
   transform="translate(397.4501,609.8)"
   class="st4 st5"
   id="text67">t</text>&#10;			<text
   transform="translate(400.5063,609.8)"
   class="st4 st5"
   id="text68">a</text>&#10;		</g>&#10;	</g>&#10;	<g
   id="g35">&#10;		<path
   id="path34"
   pointer-events="stroke"
   class="st2"
   d="m 323.5,487.6 h 92.1 c 6.7,0 10,-3.3 10,-10 l -0.1,-167.2" />&#10;		<path
   id="path35"
   pointer-events="all"
   class="st3"
   d="m 425.5,305.1 3.5,7 -3.5,-1.8 -3.5,1.8 z" />&#10;	</g>&#10;	<g
   id="g37">&#10;		<g
   id="g36"
   transform="translate(-0.5,-0.5)">&#10;			<text
   transform="translate(440.3886,463.8)"
   class="st4 st5"
   id="text69">D</text>&#10;			<text
   transform="translate(448.3324,463.8)"
   class="st4 st5"
   id="text70">a</text>&#10;			<text
   transform="translate(454.4501,463.8)"
   class="st4 st5"
   id="text71">t</text>&#10;			<text
   transform="translate(457.5063,463.8)"
   class="st4 st5"
   id="text72">a</text>&#10;		</g>&#10;	</g>&#10;	<g
   id="g38">&#10;		<circle
   id="ellipse37"
   pointer-events="all"
   class="st6"
   cx="273.5"
   cy="487.5"
   r="50" />&#10;		<circle
   id="ellipse38"
   pointer-events="all"
   class="st7"
   cx="273.5"
   cy="487.5"
   r="46" />&#10;	</g>&#10;	<g
   id="g40">&#10;		<g
   id="g39"
   transform="translate(-0.5,-0.5)">&#10;			<text
   transform="translate(239.4776,492.9001)"
   class="st4 st8"
   id="text73">I</text>&#10;			<text
   transform="translate(242.8115,492.9001)"
   class="st4 st8"
   id="text74">o</text>&#10;			<text
   transform="translate(249.4854,492.9001)"
   class="st4 st8"
   id="text75">t</text>&#10;			<text
   transform="translate(252.8194,492.9001)"
   class="st4 st8"
   id="text76"> </text>&#10;			<text
   transform="translate(256.1533,492.9001)"
   class="st4 st8"
   id="text77">D</text>&#10;			<text
   transform="translate(264.8193,492.9001)"
   class="st4 st8"
   id="text78">a</text>&#10;			<text
   transform="translate(271.4932,492.9001)"
   class="st4 st8"
   id="text79">t</text>&#10;			<text
   transform="translate(274.8271,492.9001)"
   class="st4 st8"
   id="text80">a</text>&#10;			<text
   transform="translate(281.501,492.9001)"
   class="st4 st8"
   id="text81">b</text>&#10;			<text
   transform="translate(288.1748,492.9001)"
   class="st4 st8"
   id="text82">a</text>&#10;			<text
   transform="translate(294.8486,492.9001)"
   class="st4 st8"
   id="text83">s</text>&#10;			<text
   transform="translate(300.8486,492.9001)"
   class="st4 st8"
   id="text84">e</text>&#10;		</g>&#10;	</g>&#10;	<g
   id="g41">&#10;		<path
   id="path40"
   pointer-events="stroke"
   class="st2"
   d="M 500,512.3 H 329.8" />&#10;		<path
   id="path41"
   pointer-events="all"
   class="st3"
   d="m 324.6,512.3 7,-3.5 -1.8,3.5 1.8,3.5 z" />&#10;	</g>&#10;	<g
   id="g43">&#10;		<g
   id="g42"
   transform="translate(-0.5,-0.5)">&#10;			<text
   transform="translate(385.3886,531.8)"
   class="st4 st5"
   id="text85">D</text>&#10;			<text
   transform="translate(393.3324,531.8)"
   class="st4 st5"
   id="text86">a</text>&#10;			<text
   transform="translate(399.4501,531.8)"
   class="st4 st5"
   id="text87">t</text>&#10;			<text
   transform="translate(402.5063,531.8)"
   class="st4 st5"
   id="text88">a</text>&#10;		</g>&#10;	</g>&#10;	<g
   id="g44">&#10;		<rect
   id="rect43"
   x="500"
   y="474.5"
   pointer-events="all"
   class="st0"
   width="96.5"
   height="63" />&#10;		<path
   id="path43"
   pointer-events="all"
   class="st2"
   d="m 500,474.5 h 96.5 m 0,63 H 500" />&#10;	</g>&#10;	<g
   id="g46">&#10;		<g
   id="g45"
   transform="translate(-0.5,-0.5)">&#10;			<text
   transform="translate(511.4805,511.9001)"
   class="st4 st8"
   id="text89">D</text>&#10;			<text
   transform="translate(520.1465,511.9001)"
   class="st4 st8"
   id="text90">a</text>&#10;			<text
   transform="translate(526.8203,511.9001)"
   class="st4 st8"
   id="text91">t</text>&#10;			<text
   transform="translate(530.1543,511.9001)"
   class="st4 st8"
   id="text92">a</text>&#10;			<text
   transform="translate(536.8281,511.9001)"
   class="st4 st8"
   id="text93">b</text>&#10;			<text
   transform="translate(543.502,511.9001)"
   class="st4 st8"
   id="text94">a</text>&#10;			<text
   transform="translate(550.1758,511.9001)"
   class="st4 st8"
   id="text95">s</text>&#10;			<text
   transform="translate(556.1758,511.9001)"
   class="st4 st8"
   id="text96">e</text>&#10;			<text
   transform="translate(562.8496,511.9001)"
   class="st4 st8"
   id="text97"> </text>&#10;			<text
   transform="translate(566.1836,511.9001)"
   class="st4 st8"
   id="text98">F</text>&#10;			<text
   transform="translate(573.5137,511.9001)"
   class="st4 st8"
   id="text99">i</text>&#10;			<text
   transform="translate(576.1797,511.9001)"
   class="st4 st8"
   id="text100">l</text>&#10;			<text
   id="text101"
   transform="translate(578.8457,511.9001)"
   class="st4 st8">e</text>&#10;		</g>&#10;	</g>&#10;	<g
   id="g47">&#10;		<rect
   id="rect46"
   x="256.5"
   y="12.5"
   pointer-events="all"
   class="st0"
   width="88.5"
   height="49" />&#10;		<path
   id="path46"
   pointer-events="all"
   class="st2"
   d="M 256.5,12.5 H 345 m 0,49 h -88.5" />&#10;	</g>&#10;	<g
   id="g49">&#10;		<g
   id="g48"
   transform="translate(-0.5,-0.5)">&#10;			<text
   transform="translate(257.5,35.6999)"
   class="st4 st8"
   id="text102">W</text>&#10;			<text
   transform="translate(268.8262,35.6999)"
   class="st4 st8"
   id="text103">e</text>&#10;			<text
   transform="translate(275.5,35.6999)"
   class="st4 st8"
   id="text104">b</text>&#10;			<text
   transform="translate(282.1738,35.6999)"
   class="st4 st8"
   id="text105"> </text>&#10;			<text
   transform="translate(285.5078,35.6999)"
   class="st4 st8"
   id="text106">s</text>&#10;			<text
   transform="translate(291.5078,35.6999)"
   class="st4 st8"
   id="text107">i</text>&#10;			<text
   transform="translate(294.1738,35.6999)"
   class="st4 st8"
   id="text108">t</text>&#10;			<text
   transform="translate(297.5078,35.6999)"
   class="st4 st8"
   id="text109">e</text>&#10;			<text
   transform="translate(304.1816,35.6999)"
   class="st4 st8"
   id="text110"> </text>&#10;			<text
   transform="translate(307.5156,35.6999)"
   class="st4 st8"
   id="text111">o</text>&#10;			<text
   transform="translate(314.1895,35.6999)"
   class="st4 st8"
   id="text112">n</text>&#10;			<text
   transform="translate(320.8633,35.6999)"
   class="st4 st8"
   id="text113"> </text>&#10;			<text
   transform="translate(324.1973,35.6999)"
   class="st4 st8"
   id="text114">d</text>&#10;			<text
   transform="translate(330.8711,35.6999)"
   class="st4 st8"
   id="text115">i</text>&#10;			<text
   transform="translate(333.5371,35.6999)"
   class="st4 st8"
   id="text116">s</text>&#10;			<text
   transform="translate(339.5371,35.6999)"
   class="st4 st8"
   id="text117">k</text>&#10;		</g>&#10;	</g>&#10;	<g
   id="g50">&#10;		<path
   id="path49"
   pointer-events="stroke"
   class="st2"
   d="M 596.5,331.6 H 471.1 c -6.7,0 -10,-3.3 -10,-10 v -23.8" />&#10;		<path
   id="path50"
   pointer-events="all"
   class="st3"
   d="m 461.1,291 4.5,9 -4.5,-2.3 -4.5,2.3 z" />&#10;	</g>&#10;	<g
   id="g52">&#10;		<g
   id="g51"
   transform="translate(-0.5,-0.5)">&#10;			<text
   transform="translate(523.7058,323.8)"
   class="st4 st5"
   id="text118">R</text>&#10;			<text
   transform="translate(531.6497,323.8)"
   class="st4 st5"
   id="text119">e</text>&#10;			<text
   transform="translate(537.7673,323.8)"
   class="st4 st5"
   id="text120">q</text>&#10;			<text
   transform="translate(543.885,323.8)"
   class="st4 st5"
   id="text121">u</text>&#10;			<text
   transform="translate(550.0027,323.8)"
   class="st4 st5"
   id="text122">e</text>&#10;			<text
   transform="translate(556.1204,323.8)"
   class="st4 st5"
   id="text123">s</text>&#10;			<text
   transform="translate(561.6204,323.8)"
   class="st4 st5"
   id="text124">t</text>&#10;			<text
   transform="translate(564.6765,323.8)"
   class="st4 st5"
   id="text125">e</text>&#10;			<text
   id="text126"
   transform="translate(570.7942,323.8)"
   class="st4 st5">s</text>&#10;		</g>&#10;	</g>&#10;	<g
   id="g53">&#10;		<rect
   id="rect52"
   x="596.5"
   y="303.5"
   pointer-events="all"
   class="st6"
   width="103"
   height="56" />&#10;	</g>&#10;	<g
   id="g55">&#10;		<g
   id="g54"
   transform="translate(-0.5,-0.5)">&#10;			<text
   transform="translate(630.9932,336.9001)"
   class="st4 st8"
   id="text127">A</text>&#10;			<text
   transform="translate(638.9971,336.9001)"
   class="st4 st8"
   id="text128">d</text>&#10;			<text
   transform="translate(645.6709,336.9001)"
   class="st4 st8"
   id="text129">m</text>&#10;			<text
   transform="translate(655.667,336.9001)"
   class="st4 st8"
   id="text130">i</text>&#10;			<text
   id="text131"
   transform="translate(658.333,336.9001)"
   class="st4 st8">n</text>&#10;		</g>&#10;	</g>&#10;	<g
   id="g56">&#10;		<path
   id="path55"
   pointer-events="stroke"
   class="st1"
   d="m 526.5,146.5 c -12.6,0 -18.9,35.8 -18.9,107.5 0,71.7 6.3,107.5 18.9,107.5" />&#10;	</g>&#10;	<g
   id="g58">&#10;		<g
   id="g57"
   transform="translate(-0.5,-0.5)">&#10;			<text
   transform="translate(515.2294,143.7999)"
   class="st4 st5"
   id="text132">U</text>&#10;			<text
   transform="translate(523.1732,143.7999)"
   class="st4 st5"
   id="text133">s</text>&#10;			<text
   transform="translate(528.6732,143.7999)"
   class="st4 st5"
   id="text134">e</text>&#10;			<text
   transform="translate(534.7909,143.7999)"
   class="st4 st5"
   id="text135">r</text>&#10;			<text
   transform="translate(538.454,143.7999)"
   class="st4 st5"
   id="text136"> </text>&#10;			<text
   transform="translate(541.5101,143.7999)"
   class="st4 st5"
   id="text137">/</text>&#10;			<text
   transform="translate(544.5663,143.7999)"
   class="st4 st5"
   id="text138"> </text>&#10;			<text
   transform="translate(547.6224,143.7999)"
   class="st4 st5"
   id="text139">W</text>&#10;			<text
   transform="translate(558.0048,143.7999)"
   class="st4 st5"
   id="text140">e</text>&#10;			<text
   transform="translate(564.1224,143.7999)"
   class="st4 st5"
   id="text141">b</text>&#10;			<text
   transform="translate(570.2401,143.7999)"
   class="st4 st5"
   id="text142"> </text>&#10;			<text
   transform="translate(573.2963,143.7999)"
   class="st4 st5"
   id="text143">s</text>&#10;			<text
   transform="translate(578.7963,143.7999)"
   class="st4 st5"
   id="text144">e</text>&#10;			<text
   transform="translate(584.9139,143.7999)"
   class="st4 st5"
   id="text145">r</text>&#10;			<text
   transform="translate(588.577,143.7999)"
   class="st4 st5"
   id="text146">v</text>&#10;			<text
   transform="translate(594.077,143.7999)"
   class="st4 st5"
   id="text147">e</text>&#10;			<text
   transform="translate(600.1947,143.7999)"
   class="st4 st5"
   id="text148">r</text>&#10;			<text
   transform="translate(603.8578,143.7999)"
   class="st4 st5"
   id="text149"> </text>&#10;			<text
   transform="translate(606.9139,143.7999)"
   class="st4 st5"
   id="text150">b</text>&#10;			<text
   transform="translate(613.0316,143.7999)"
   class="st4 st5"
   id="text151">o</text>&#10;			<text
   transform="translate(619.1493,143.7999)"
   class="st4 st5"
   id="text152">u</text>&#10;			<text
   transform="translate(625.267,143.7999)"
   class="st4 st5"
   id="text153">n</text>&#10;			<text
   transform="translate(631.3846,143.7999)"
   class="st4 st5"
   id="text154">d</text>&#10;			<text
   transform="translate(637.5023,143.7999)"
   class="st4 st5"
   id="text155">a</text>&#10;			<text
   transform="translate(643.62,143.7999)"
   class="st4 st5"
   id="text156">r</text>&#10;			<text
   transform="translate(647.2831,143.7999)"
   class="st4 st5"
   id="text157">y</text>&#10;		</g>&#10;	</g>&#10;	<g
   id="g60">&#10;		<g
   id="g59"
   transform="translate(-0.5,-0.5)">&#10;			<text
   transform="translate(494.2913,401.8)"
   class="st4 st5"
   id="text158">W</text>&#10;			<text
   transform="translate(504.6736,401.8)"
   class="st4 st5"
   id="text159">e</text>&#10;			<text
   transform="translate(510.7913,401.8)"
   class="st4 st5"
   id="text160">b</text>&#10;			<text
   transform="translate(516.9089,401.8)"
   class="st4 st5"
   id="text161"> </text>&#10;			<text
   transform="translate(519.9651,401.8)"
   class="st4 st5"
   id="text162">s</text>&#10;			<text
   transform="translate(525.4651,401.8)"
   class="st4 st5"
   id="text163">e</text>&#10;			<text
   transform="translate(531.5828,401.8)"
   class="st4 st5"
   id="text164">r</text>&#10;			<text
   transform="translate(535.2458,401.8)"
   class="st4 st5"
   id="text165">v</text>&#10;			<text
   transform="translate(540.7458,401.8)"
   class="st4 st5"
   id="text166">e</text>&#10;			<text
   transform="translate(546.8635,401.8)"
   class="st4 st5"
   id="text167">r</text>&#10;			<text
   transform="translate(550.5266,401.8)"
   class="st4 st5"
   id="text168"> </text>&#10;			<text
   transform="translate(553.5828,401.8)"
   class="st4 st5"
   id="text169">/</text>&#10;			<text
   transform="translate(556.6389,401.8)"
   class="st4 st5"
   id="text170"> </text>&#10;			<text
   transform="translate(559.6951,401.8)"
   class="st4 st5"
   id="text171">D</text>&#10;			<text
   transform="translate(567.639,401.8)"
   class="st4 st5"
   id="text172">a</text>&#10;			<text
   transform="translate(573.7566,401.8)"
   class="st4 st5"
   id="text173">t</text>&#10;			<text
   transform="translate(576.8127,401.8)"
   class="st4 st5"
   id="text174">a</text>&#10;			<text
   transform="translate(582.9304,401.8)"
   class="st4 st5"
   id="text175">b</text>&#10;			<text
   transform="translate(589.0481,401.8)"
   class="st4 st5"
   id="text176">a</text>&#10;			<text
   transform="translate(595.1658,401.8)"
   class="st4 st5"
   id="text177">s</text>&#10;			<text
   transform="translate(600.6658,401.8)"
   class="st4 st5"
   id="text178">e</text>&#10;			<text
   transform="translate(606.7835,401.8)"
   class="st4 st5"
   id="text179"> </text>&#10;			<text
   transform="translate(609.8396,401.8)"
   class="st4 st5"
   id="text180">b</text>&#10;			<text
   transform="translate(615.9573,401.8)"
   class="st4 st5"
   id="text181">o</text>&#10;			<text
   transform="translate(622.075,401.8)"
   class="st4 st5"
   id="text182">u</text>&#10;			<text
   transform="translate(628.1926,401.8)"
   class="st4 st5"
   id="text183">n</text>&#10;			<text
   transform="translate(634.3103,401.8)"
   class="st4 st5"
   id="text184">d</text>&#10;			<text
   transform="translate(640.428,401.8)"
   class="st4 st5"
   id="text185">a</text>&#10;			<text
   transform="translate(646.5457,401.8)"
   class="st4 st5"
   id="text186">r</text>&#10;			<text
   transform="translate(650.2087,401.8)"
   class="st4 st5"
   id="text187">y</text>&#10;		</g>&#10;	</g>&#10;	<g
   id="g61">&#10;		<path
   id="path60"
   pointer-events="stroke"
   class="st1"
   d="m 108.5,398.5 c 0,4 30,6 90,6 60,0 90,-4.7 90,-14" />&#10;	</g>&#10;	<g
   id="g63">&#10;		<g
   id="g62"
   transform="translate(-0.5,-0.5)">&#10;			<text
   transform="translate(55.8167,155.7999)"
   class="st4 st5"
   id="text188">M</text>&#10;			<text
   transform="translate(64.9797,155.7999)"
   class="st4 st5"
   id="text189">i</text>&#10;			<text
   transform="translate(67.4236,155.7999)"
   class="st4 st5"
   id="text190">c</text>&#10;			<text
   transform="translate(72.9236,155.7999)"
   class="st4 st5"
   id="text191">r</text>&#10;			<text
   transform="translate(76.5867,155.7999)"
   class="st4 st5"
   id="text192">o</text>&#10;			<text
   transform="translate(82.7043,155.7999)"
   class="st4 st5"
   id="text193">c</text>&#10;			<text
   transform="translate(88.2043,155.7999)"
   class="st4 st5"
   id="text194">o</text>&#10;			<text
   transform="translate(94.322,155.7999)"
   class="st4 st5"
   id="text195">n</text>&#10;			<text
   transform="translate(100.4397,155.7999)"
   class="st4 st5"
   id="text196">t</text>&#10;			<text
   transform="translate(103.4958,155.7999)"
   class="st4 st5"
   id="text197">r</text>&#10;			<text
   transform="translate(107.1589,155.7999)"
   class="st4 st5"
   id="text198">o</text>&#10;			<text
   transform="translate(113.2766,155.7999)"
   class="st4 st5"
   id="text199">l</text>&#10;			<text
   transform="translate(115.7205,155.7999)"
   class="st4 st5"
   id="text200">a</text>&#10;			<text
   transform="translate(121.8381,155.7999)"
   class="st4 st5"
   id="text201">d</text>&#10;			<text
   transform="translate(127.9558,155.7999)"
   class="st4 st5"
   id="text202">o</text>&#10;			<text
   transform="translate(134.0735,155.7999)"
   class="st4 st5"
   id="text203">r</text>&#10;			<text
   transform="translate(137.7366,155.7999)"
   class="st4 st5"
   id="text204">/</text>&#10;			<text
   transform="translate(140.7927,155.7999)"
   class="st4 st5"
   id="text205"> </text>&#10;			<text
   transform="translate(143.8489,155.7999)"
   class="st4 st5"
   id="text206">G</text>&#10;			<text
   transform="translate(152.405,155.7999)"
   class="st4 st5"
   id="text207">a</text>&#10;			<text
   transform="translate(158.5227,155.7999)"
   class="st4 st5"
   id="text208">t</text>&#10;			<text
   transform="translate(161.5789,155.7999)"
   class="st4 st5"
   id="text209">e</text>&#10;			<text
   transform="translate(167.6965,155.7999)"
   class="st4 st5"
   id="text210">w</text>&#10;			<text
   transform="translate(175.6404,155.7999)"
   class="st4 st5"
   id="text211">a</text>&#10;			<text
   transform="translate(181.7581,155.7999)"
   class="st4 st5"
   id="text212">y</text>&#10;			<text
   transform="translate(187.2581,155.7999)"
   class="st4 st5"
   id="text213"> </text>&#10;			<text
   transform="translate(190.3142,155.7999)"
   class="st4 st5"
   id="text214">b</text>&#10;			<text
   transform="translate(196.4319,155.7999)"
   class="st4 st5"
   id="text215">o</text>&#10;			<text
   transform="translate(202.5496,155.7999)"
   class="st4 st5"
   id="text216">u</text>&#10;			<text
   transform="translate(208.6672,155.7999)"
   class="st4 st5"
   id="text217">n</text>&#10;			<text
   transform="translate(214.7849,155.7999)"
   class="st4 st5"
   id="text218">d</text>&#10;			<text
   transform="translate(220.9026,155.7999)"
   class="st4 st5"
   id="text219">a</text>&#10;			<text
   transform="translate(227.0203,155.7999)"
   class="st4 st5"
   id="text220">r</text>&#10;			<text
   transform="translate(230.6833,155.7999)"
   class="st4 st5"
   id="text221">y</text>&#10;		</g>&#10;	</g>&#10;	<g
   id="g64">&#10;		<path
   id="path63"
   pointer-events="stroke"
   class="st2"
   d="m 112.5,253.5 69.3,-0.1" />&#10;		<path
   id="path64"
   pointer-events="all"
   class="st3"
   d="m 187,253.4 -7,3.5 1.8,-3.5 -1.8,-3.5 z" />&#10;	</g>&#10;	<g
   id="g65">&#10;		<circle
   id="ellipse64"
   pointer-events="all"
   class="st6"
   cx="62.5"
   cy="253.5"
   r="50" />&#10;		<circle
   id="ellipse65"
   pointer-events="all"
   class="st7"
   cx="62.5"
   cy="253.5"
   r="46" />&#10;	</g>&#10;	<g
   id="g67">&#10;		<g
   id="g66"
   transform="translate(-0.5,-0.5)">&#10;			<text
   transform="translate(21.54,258.7999)"
   class="st4 st5"
   id="text222">M</text>&#10;			<text
   transform="translate(30.7031,258.7999)"
   class="st4 st5"
   id="text223">i</text>&#10;			<text
   transform="translate(33.147,258.7999)"
   class="st4 st5"
   id="text224">c</text>&#10;			<text
   transform="translate(38.647,258.7999)"
   class="st4 st5"
   id="text225">r</text>&#10;			<text
   transform="translate(42.3101,258.7999)"
   class="st4 st5"
   id="text226">o</text>&#10;			<text
   transform="translate(48.4277,258.7999)"
   class="st4 st5"
   id="text227">c</text>&#10;			<text
   transform="translate(53.9277,258.7999)"
   class="st4 st5"
   id="text228">o</text>&#10;			<text
   transform="translate(60.0454,258.7999)"
   class="st4 st5"
   id="text229">n</text>&#10;			<text
   transform="translate(66.1631,258.7999)"
   class="st4 st5"
   id="text230">t</text>&#10;			<text
   transform="translate(69.2192,258.7999)"
   class="st4 st5"
   id="text231">r</text>&#10;			<text
   transform="translate(72.8823,258.7999)"
   class="st4 st5"
   id="text232">o</text>&#10;			<text
   transform="translate(79,258.7999)"
   class="st4 st5"
   id="text233">l</text>&#10;			<text
   transform="translate(81.4438,258.7999)"
   class="st4 st5"
   id="text234">a</text>&#10;			<text
   transform="translate(87.5615,258.7999)"
   class="st4 st5"
   id="text235">d</text>&#10;			<text
   transform="translate(93.6792,258.7999)"
   class="st4 st5"
   id="text236">o</text>&#10;			<text
   transform="translate(99.7969,258.7999)"
   class="st4 st5"
   id="text237">r</text>&#10;		</g>&#10;	</g>&#10;	<g
   id="g68">&#10;		<path
   id="path67"
   pointer-events="stroke"
   class="st1"
   d="m 122.5,165.5 c 15.4,0 23.1,31.4 23.1,94.1 0,62.7 -7.7,94 -23.1,93.9" />&#10;	</g>&#10;	<g
   id="g69">&#10;		<path
   id="path68"
   pointer-events="stroke"
   class="st2"
   d="m 199.6,285.4 v 192.2 c 0,6.7 2.9,10 8.8,10 h 8.8" />&#10;		<path
   id="path69"
   pointer-events="all"
   class="st3"
   d="m 222.4,487.6 -7,3.5 1.8,-3.5 -1.8,-3.5 z" />&#10;	</g>&#10;	<g
   id="g71">&#10;		<g
   id="g70"
   transform="translate(-0.5,-0.5)">&#10;			<text
   transform="translate(114.7366,443.8)"
   class="st4 st5"
   id="text238">S</text>&#10;			<text
   transform="translate(122.0735,443.8)"
   class="st4 st5"
   id="text239">Q</text>&#10;			<text
   transform="translate(130.6296,443.8)"
   class="st4 st5"
   id="text240">L</text>&#10;			<text
   transform="translate(136.7473,443.8)"
   class="st4 st5"
   id="text241"> </text>&#10;			<text
   transform="translate(139.8035,443.8)"
   class="st4 st5"
   id="text242">Q</text>&#10;			<text
   transform="translate(148.3596,443.8)"
   class="st4 st5"
   id="text243">u</text>&#10;			<text
   transform="translate(154.4773,443.8)"
   class="st4 st5"
   id="text244">e</text>&#10;			<text
   transform="translate(160.595,443.8)"
   class="st4 st5"
   id="text245">r</text>&#10;			<text
   transform="translate(164.2581,443.8)"
   class="st4 st5"
   id="text246">y</text>&#10;			<text
   transform="translate(169.7581,443.8)"
   class="st4 st5"
   id="text247"> </text>&#10;			<text
   transform="translate(172.8142,443.8)"
   class="st4 st5"
   id="text248">C</text>&#10;			<text
   transform="translate(180.7581,443.8)"
   class="st4 st5"
   id="text249">a</text>&#10;			<text
   transform="translate(186.8757,443.8)"
   class="st4 st5"
   id="text250">l</text>&#10;			<text
   transform="translate(189.3196,443.8)"
   class="st4 st5"
   id="text251">l</text>&#10;			<text
   id="text252"
   transform="translate(191.7634,443.8)"
   class="st4 st5">s</text>&#10;		</g>&#10;	</g>&#10;	<g
   id="g72">&#10;		<path
   id="path71"
   pointer-events="stroke"
   class="st1"
   d="m 323.5,386.5 c 0,-3.3 26.6,-4.9 79.5,-4.9 53,0 79.5,1.6 79.5,4.9" />&#10;	</g>&#10;	<g
   id="g73">&#10;		<path
   id="path72"
   pointer-events="stroke"
   class="st2"
   d="m 380.5,275.8 v 173.5 c 0,6.7 -3.3,10 -10,10 h -47.8" />&#10;		<path
   id="path73"
   pointer-events="all"
   class="st3"
   d="m 317.5,459.3 7,-3.5 -1.8,3.5 1.8,3.5 z" />&#10;	</g>&#10;	<g
   id="g75">&#10;		<g
   id="g74"
   transform="translate(-0.5,-0.5)">&#10;			<text
   transform="translate(294.7366,337.8)"
   class="st4 st5"
   id="text253">S</text>&#10;			<text
   transform="translate(302.0735,337.8)"
   class="st4 st5"
   id="text254">Q</text>&#10;			<text
   transform="translate(310.6296,337.8)"
   class="st4 st5"
   id="text255">L</text>&#10;			<text
   transform="translate(316.7473,337.8)"
   class="st4 st5"
   id="text256"> </text>&#10;			<text
   transform="translate(319.8035,337.8)"
   class="st4 st5"
   id="text257">Q</text>&#10;			<text
   transform="translate(328.3596,337.8)"
   class="st4 st5"
   id="text258">u</text>&#10;			<text
   transform="translate(334.4773,337.8)"
   class="st4 st5"
   id="text259">e</text>&#10;			<text
   transform="translate(340.595,337.8)"
   class="st4 st5"
   id="text260">r</text>&#10;			<text
   transform="translate(344.2581,337.8)"
   class="st4 st5"
   id="text261">y</text>&#10;			<text
   transform="translate(349.7581,337.8)"
   class="st4 st5"
   id="text262"> </text>&#10;			<text
   transform="translate(352.8142,337.8)"
   class="st4 st5"
   id="text263">C</text>&#10;			<text
   transform="translate(360.7581,337.8)"
   class="st4 st5"
   id="text264">a</text>&#10;			<text
   transform="translate(366.8757,337.8)"
   class="st4 st5"
   id="text265">l</text>&#10;			<text
   transform="translate(369.3196,337.8)"
   class="st4 st5"
   id="text266">l</text>&#10;			<text
   id="text267"
   transform="translate(371.7634,337.8)"
   class="st4 st5">s</text>&#10;		</g>&#10;	</g>&#10;	<g
   id="g76">&#10;		<path
   id="path75"
   pointer-events="stroke"
   class="st2"
   d="M 398.5,204 V 47.4 c 0,-6.7 -3.3,-10 -10,-10 h -33.9 c -6.7,0 -10,0.5 -10,1.5 v 1.5" />&#10;		<path
   id="path76"
   pointer-events="all"
   class="st3"
   d="m 398.5,210.8 -4.5,-9 4.5,2.3 4.5,-2.3 z" />&#10;	</g>&#10;	<g
   id="g78">&#10;		<g
   id="g77"
   transform="translate(-0.5,-0.5)">&#10;			<text
   transform="translate(408.405,113.8)"
   class="st4 st5"
   id="text268">P</text>&#10;			<text
   transform="translate(415.7419,113.8)"
   class="st4 st5"
   id="text269">a</text>&#10;			<text
   transform="translate(421.8596,113.8)"
   class="st4 st5"
   id="text270">g</text>&#10;			<text
   transform="translate(427.9773,113.8)"
   class="st4 st5"
   id="text271">e</text>&#10;			<text
   id="text272"
   transform="translate(434.095,113.8)"
   class="st4 st5">s</text>&#10;		</g>&#10;	</g>&#10;	<g
   id="g79">&#10;		<path
   id="path78"
   pointer-events="stroke"
   class="st2"
   d="M 474.8,262.5 H 624 c 6.7,0 10,-1.4 10,-4.1 v -4.1" />&#10;		<path
   id="path79"
   pointer-events="all"
   class="st3"
   d="m 634,247.5 4.5,9 -4.5,-2.3 -4.5,2.3 z" />&#10;	</g>&#10;	<g
   id="g81">&#10;		<g
   id="g80"
   transform="translate(-0.5,-0.5)">&#10;			<text
   transform="translate(524.2401,258.7999)"
   class="st4 st5"
   id="text273">R</text>&#10;			<text
   transform="translate(532.184,258.7999)"
   class="st4 st5"
   id="text274">e</text>&#10;			<text
   transform="translate(538.3016,258.7999)"
   class="st4 st5"
   id="text275">s</text>&#10;			<text
   transform="translate(543.8016,258.7999)"
   class="st4 st5"
   id="text276">p</text>&#10;			<text
   transform="translate(549.9193,258.7999)"
   class="st4 st5"
   id="text277">o</text>&#10;			<text
   transform="translate(556.037,258.7999)"
   class="st4 st5"
   id="text278">n</text>&#10;			<text
   transform="translate(562.1547,258.7999)"
   class="st4 st5"
   id="text279">s</text>&#10;			<text
   transform="translate(567.6547,258.7999)"
   class="st4 st5"
   id="text280">e</text>&#10;		</g>&#10;	</g>&#10;	<g
   id="g82">&#10;		<path
   id="path81"
   pointer-events="stroke"
   class="st2"
   d="m 472.7,270.5 h 157.2 c 6.7,0 10,3.3 10,10 v 13.3" />&#10;		<path
   id="path82"
   pointer-events="all"
   class="st3"
   d="m 639.9,300.6 -4.5,-9 4.5,2.3 4.5,-2.3 z" />&#10;	</g>&#10;	<g
   id="g84">&#10;		<g
   id="g83"
   transform="translate(-0.5,-0.5)">&#10;			<text
   transform="translate(525.2401,284.7999)"
   class="st4 st5"
   id="text281">R</text>&#10;			<text
   transform="translate(533.184,284.7999)"
   class="st4 st5"
   id="text282">e</text>&#10;			<text
   transform="translate(539.3016,284.7999)"
   class="st4 st5"
   id="text283">s</text>&#10;			<text
   transform="translate(544.8016,284.7999)"
   class="st4 st5"
   id="text284">p</text>&#10;			<text
   transform="translate(550.9193,284.7999)"
   class="st4 st5"
   id="text285">o</text>&#10;			<text
   transform="translate(557.037,284.7999)"
   class="st4 st5"
   id="text286">n</text>&#10;			<text
   transform="translate(563.1547,284.7999)"
   class="st4 st5"
   id="text287">s</text>&#10;			<text
   transform="translate(568.6547,284.7999)"
   class="st4 st5"
   id="text288">e</text>&#10;		</g>&#10;	</g>&#10;	<g
   id="g85">&#10;		<path
   id="path84"
   pointer-events="stroke"
   class="st2"
   d="m 636.4,188.7 v -8.6 c 0,-5.7 -3.3,-8.6 -10,-8.6 H 471.1 c -6.7,0 -10,3.3 -10,10 v 28.7" />&#10;		<path
   id="path85"
   pointer-events="all"
   class="st3"
   d="m 461.1,217 -4.5,-9 4.5,2.3 4.5,-2.3 z" />&#10;	</g>&#10;	<g
   id="g87">&#10;		<g
   id="g86"
   transform="translate(-0.5,-0.5)">&#10;			<text
   transform="translate(521.7058,193.7999)"
   class="st4 st5"
   id="text289">R</text>&#10;			<text
   transform="translate(529.6497,193.7999)"
   class="st4 st5"
   id="text290">e</text>&#10;			<text
   transform="translate(535.7673,193.7999)"
   class="st4 st5"
   id="text291">q</text>&#10;			<text
   transform="translate(541.885,193.7999)"
   class="st4 st5"
   id="text292">u</text>&#10;			<text
   transform="translate(548.0027,193.7999)"
   class="st4 st5"
   id="text293">e</text>&#10;			<text
   transform="translate(554.1204,193.7999)"
   class="st4 st5"
   id="text294">s</text>&#10;			<text
   transform="translate(559.6204,193.7999)"
   class="st4 st5"
   id="text295">t</text>&#10;			<text
   transform="translate(562.6765,193.7999)"
   class="st4 st5"
   id="text296">e</text>&#10;			<text
   id="text297"
   transform="translate(568.7942,193.7999)"
   class="st4 st5">s</text>&#10;		</g>&#10;	</g>&#10;	<g
   id="g88">&#10;		<path
   id="path87"
   pointer-events="stroke"
   class="st2"
   d="m 268.5,537.3 v 42.2 c 0,6.7 3.3,10 10,10 h 259.7 c 6.7,0 10,-3.3 10,-10 v -34.9" />&#10;		<path
   id="path88"
   pointer-events="all"
   class="st3"
   d="m 548.2,539.3 3.5,7 -3.5,-1.8 -3.5,1.8 z" />&#10;	</g>&#10;	<g
   id="g90">&#10;		<g
   id="g89"
   transform="translate(-0.5,-0.5)">&#10;			<text
   transform="translate(383.3886,609.8)"
   class="st4 st5"
   id="text298">D</text>&#10;			<text
   transform="translate(391.3324,609.8)"
   class="st4 st5"
   id="text299">a</text>&#10;			<text
   transform="translate(397.4501,609.8)"
   class="st4 st5"
   id="text300">t</text>&#10;			<text
   transform="translate(400.5063,609.8)"
   class="st4 st5"
   id="text301">a</text>&#10;		</g>&#10;	</g>&#10;	<g
   id="g91">&#10;		<path
   id="path90"
   pointer-events="stroke"
   class="st2"
   d="m 323.5,487.6 h 92.1 c 6.7,0 10,-3.3 10,-10 l -0.1,-167.2" />&#10;		<path
   id="path91"
   pointer-events="all"
   class="st3"
   d="m 425.5,305.1 3.5,7 -3.5,-1.8 -3.5,1.8 z" />&#10;	</g>&#10;	<g
   id="g93">&#10;		<g
   id="g92"
   transform="translate(-0.5,-0.5)">&#10;			<text
   transform="translate(440.3886,463.8)"
   class="st4 st5"
   id="text302">D</text>&#10;			<text
   transform="translate(448.3324,463.8)"
   class="st4 st5"
   id="text303">a</text>&#10;			<text
   transform="translate(454.4501,463.8)"
   class="st4 st5"
   id="text304">t</text>&#10;			<text
   transform="translate(457.5063,463.8)"
   class="st4 st5"
   id="text305">a</text>&#10;		</g>&#10;	</g>&#10;	<g
   id="g94">&#10;		<path
   id="path93"
   pointer-events="stroke"
   class="st2"
   d="M 500,512.3 H 329.8" />&#10;		<path
   id="path94"
   pointer-events="all"
   class="st3"
   d="m 324.6,512.3 7,-3.5 -1.8,3.5 1.8,3.5 z" />&#10;	</g>&#10;	<g
   id="g96">&#10;		<g
   id="g95"
   transform="translate(-0.5,-0.5)">&#10;			<text
   transform="translate(385.3886,531.8)"
   class="st4 st5"
   id="text306">D</text>&#10;			<text
   transform="translate(393.3324,531.8)"
   class="st4 st5"
   id="text307">a</text>&#10;			<text
   transform="translate(399.4501,531.8)"
   class="st4 st5"
   id="text308">t</text>&#10;			<text
   transform="translate(402.5063,531.8)"
   class="st4 st5"
   id="text309">a</text>&#10;		</g>&#10;	</g>&#10;	<g
   id="g97">&#10;		<path
   id="path96"
   pointer-events="stroke"
   class="st2"
   d="M 596.5,331.6 H 471.1 c -6.7,0 -10,-3.3 -10,-10 v -23.8" />&#10;		<path
   id="path97"
   pointer-events="all"
   class="st3"
   d="m 461.1,291 4.5,9 -4.5,-2.3 -4.5,2.3 z" />&#10;	</g>&#10;	<g
   id="g99">&#10;		<g
   id="g98"
   transform="translate(-0.5,-0.5)">&#10;			<text
   transform="translate(523.7058,323.8)"
   class="st4 st5"
   id="text310">R</text>&#10;			<text
   transform="translate(531.6497,323.8)"
   class="st4 st5"
   id="text311">e</text>&#10;			<text
   transform="translate(537.7673,323.8)"
   class="st4 st5"
   id="text312">q</text>&#10;			<text
   transform="translate(543.885,323.8)"
   class="st4 st5"
   id="text313">u</text>&#10;			<text
   transform="translate(550.0027,323.8)"
   class="st4 st5"
   id="text314">e</text>&#10;			<text
   transform="translate(556.1204,323.8)"
   class="st4 st5"
   id="text315">s</text>&#10;			<text
   transform="translate(561.6204,323.8)"
   class="st4 st5"
   id="text316">t</text>&#10;			<text
   transform="translate(564.6765,323.8)"
   class="st4 st5"
   id="text317">e</text>&#10;			<text
   id="text318"
   transform="translate(570.7942,323.8)"
   class="st4 st5">s</text>&#10;		</g>&#10;	</g>&#10;	<g
   id="g100">&#10;		<path
   id="path99"
   pointer-events="stroke"
   class="st1"
   d="m 526.5,146.5 c -12.6,0 -18.9,35.8 -18.9,107.5 0,71.7 6.3,107.5 18.9,107.5" />&#10;	</g>&#10;	<g
   id="g102">&#10;		<g
   id="g101"
   transform="translate(-0.5,-0.5)">&#10;			<text
   transform="translate(515.2294,143.7999)"
   class="st4 st5"
   id="text319">U</text>&#10;			<text
   transform="translate(523.1732,143.7999)"
   class="st4 st5"
   id="text320">s</text>&#10;			<text
   transform="translate(528.6732,143.7999)"
   class="st4 st5"
   id="text321">e</text>&#10;			<text
   transform="translate(534.7909,143.7999)"
   class="st4 st5"
   id="text322">r</text>&#10;			<text
   transform="translate(538.454,143.7999)"
   class="st4 st5"
   id="text323"> </text>&#10;			<text
   transform="translate(541.5101,143.7999)"
   class="st4 st5"
   id="text324">/</text>&#10;			<text
   transform="translate(544.5663,143.7999)"
   class="st4 st5"
   id="text325"> </text>&#10;			<text
   transform="translate(547.6224,143.7999)"
   class="st4 st5"
   id="text326">W</text>&#10;			<text
   transform="translate(558.0048,143.7999)"
   class="st4 st5"
   id="text327">e</text>&#10;			<text
   transform="translate(564.1224,143.7999)"
   class="st4 st5"
   id="text328">b</text>&#10;			<text
   transform="translate(570.2401,143.7999)"
   class="st4 st5"
   id="text329"> </text>&#10;			<text
   transform="translate(573.2963,143.7999)"
   class="st4 st5"
   id="text330">s</text>&#10;			<text
   transform="translate(578.7963,143.7999)"
   class="st4 st5"
   id="text331">e</text>&#10;			<text
   transform="translate(584.9139,143.7999)"
   class="st4 st5"
   id="text332">r</text>&#10;			<text
   transform="translate(588.577,143.7999)"
   class="st4 st5"
   id="text333">v</text>&#10;			<text
   transform="translate(594.077,143.7999)"
   class="st4 st5"
   id="text334">e</text>&#10;			<text
   transform="translate(600.1947,143.7999)"
   class="st4 st5"
   id="text335">r</text>&#10;			<text
   transform="translate(603.8578,143.7999)"
   class="st4 st5"
   id="text336"> </text>&#10;			<text
   transform="translate(606.9139,143.7999)"
   class="st4 st5"
   id="text337">b</text>&#10;			<text
   transform="translate(613.0316,143.7999)"
   class="st4 st5"
   id="text338">o</text>&#10;			<text
   transform="translate(619.1493,143.7999)"
   class="st4 st5"
   id="text339">u</text>&#10;			<text
   transform="translate(625.267,143.7999)"
   class="st4 st5"
   id="text340">n</text>&#10;			<text
   transform="translate(631.3846,143.7999)"
   class="st4 st5"
   id="text341">d</text>&#10;			<text
   transform="translate(637.5023,143.7999)"
   class="st4 st5"
   id="text342">a</text>&#10;			<text
   transform="translate(643.62,143.7999)"
   class="st4 st5"
   id="text343">r</text>&#10;			<text
   transform="translate(647.2831,143.7999)"
   class="st4 st5"
   id="text344">y</text>&#10;		</g>&#10;	</g>&#10;	<g
   id="g103">&#10;		<path
   id="path102"
   pointer-events="stroke"
   class="st1"
   d="m 108.5,398.5 c 0,4 30,6 90,6 60,0 90,-4.7 90,-14" />&#10;	</g>&#10;	<g
   id="g104">&#10;		<path
   id="path103"
   pointer-events="stroke"
   class="st2"
   d="m 112.5,253.5 69.3,-0.1" />&#10;		<path
   id="path104"
   pointer-events="all"
   class="st3"
   d="m 187,253.4 -7,3.5 1.8,-3.5 -1.8,-3.5 z" />&#10;	</g>&#10;</g>&#10;&#10;<text
   class="st4 st8"
   id="text345"
   style="font-size:11px"
   x="392.05469"
   y="249.9592">Iot Website</text>&#10;<text
   class="st4 st8"
   id="text346"
   style="font-size:11px"
   x="395.61139"
   y="265.0687">/ Node JS</text>&#10;<text
   class="st4 st8"
   id="text347"
   style="font-size:11px"
   x="214.69991"
   y="238.9899">Gateway</text>&#10;<text
   class="st4 st8"
   id="text348"
   style="font-size:11px"
   x="226.37469"
   y="254.0993">/ OS</text>&#10;<text
   class="st4 st8"
   id="text349"
   style="font-size:11px"
   x="198.8181"
   y="269.20871">/ Broker MQTT </text>&#10;&#10;</svg>
