<?xml version="1.0" encoding="utf-8"?>
<!-- Generator: Adobe Illustrator 23.0.0, SVG Export Plug-In . SVG Version: 6.00 Build 0)  -->
<svg version="1.1"
	 id="svg100" xmlns:inkscape="http://www.inkscape.org/namespaces/inkscape" xmlns:sodipodi="http://sodipodi.sourceforge.net/DTD/sodipodi-0.dtd" xmlns:svg="http://www.w3.org/2000/svg" xmlns:xhtml="http://www.w3.org/1999/xhtml"
	 xmlns="http://www.w3.org/2000/svg" xmlns:xlink="http://www.w3.org/1999/xlink" x="0px" y="0px" viewBox="0 0 709 619"
	 style="enable-background:new 0 0 709 619;" xml:space="preserve">
<style type="text/css">
	.st0{fill:none;}
	.st1{fill:none;stroke:#CC0000;stroke-width:2;stroke-miterlimit:10;stroke-dasharray:6,6;}
	.st2{fill:none;stroke:#000000;stroke-miterlimit:10;}
	.st3{stroke:#000000;stroke-miterlimit:10;}
	.st4{font-family:'ArialMT';}
	.st5{font-size:11px;}
	.st6{fill:#FFFFFF;stroke:#000000;}
	.st7{fill:none;stroke:#000000;}
	.st8{font-size:12px;}
</style>
<path class="st0" d="z"/>
<sodipodi:namedview  bordercolor="#000000" borderopacity="0.25" id="namedview106" inkscape:current-layer="svg106" inkscape:cx="373.07861" inkscape:cy="231.47946" inkscape:deskcolor="#d1d1d1" inkscape:pagecheckerboard="0" inkscape:pageopacity="0.0" inkscape:showpageshadow="2" inkscape:window-height="1017" inkscape:window-maximized="1" inkscape:window-width="1920" inkscape:window-x="1072" inkscape:window-y="1028" inkscape:zoom="0.9957687" pagecolor="#ffffff">
	</sodipodi:namedview>
<g id="g105">
	<g id="g2">
		<path id="path2" pointer-events="stroke" class="st1" d="M122.5,165.5c15.4,0,23.1,31.4,23.1,94.1s-7.7,94-23.1,93.9"/>
	</g>
	<g id="g4">
		<path id="path3" pointer-events="stroke" class="st2" d="M199.6,285.4v192.2c0,6.7,2.9,10,8.8,10h8.8"/>
		<path id="path4" pointer-events="all" class="st3" d="M222.4,487.6l-7,3.5l1.8-3.5l-1.8-3.5L222.4,487.6z"/>
	</g>
	<g id="g6">
		<g id="g5" transform="translate(-0.5 -0.5)">
			<text transform="matrix(1 0 0 1 114.7366 443.8)" class="st4 st5">S</text>
			<text transform="matrix(1 0 0 1 122.0735 443.8)" class="st4 st5">Q</text>
			<text transform="matrix(1 0 0 1 130.6296 443.8)" class="st4 st5">L</text>
			<text transform="matrix(1 0 0 1 136.7473 443.8)" class="st4 st5"> </text>
			<text transform="matrix(1 0 0 1 139.8035 443.8)" class="st4 st5">Q</text>
			<text transform="matrix(1 0 0 1 148.3596 443.8)" class="st4 st5">u</text>
			<text transform="matrix(1 0 0 1 154.4773 443.8)" class="st4 st5">e</text>
			<text transform="matrix(1 0 0 1 160.595 443.8)" class="st4 st5">r</text>
			<text transform="matrix(1 0 0 1 164.2581 443.8)" class="st4 st5">y</text>
			<text transform="matrix(1 0 0 1 169.7581 443.8)" class="st4 st5"> </text>
			<text transform="matrix(1 0 0 1 172.8142 443.8)" class="st4 st5">C</text>
			<text transform="matrix(1 0 0 1 180.7581 443.8)" class="st4 st5">a</text>
			<text transform="matrix(1 0 0 1 186.8757 443.8)" class="st4 st5">l</text>
			<text transform="matrix(1 0 0 1 189.3196 443.8)" class="st4 st5">l</text>
			<text id="text4" transform="matrix(1 0 0 1 191.7634 443.8)" class="st4 st5">s</text>
		</g>
	</g>
	<g id="g7">
		<ellipse id="ellipse6" pointer-events="all" class="st6" cx="238.5" cy="254" rx="50" ry="50"/>
		<ellipse id="ellipse7" pointer-events="all" class="st7" cx="238.5" cy="254" rx="46" ry="46"/>
	</g>
	<g id="g10">
		<path id="path9" pointer-events="stroke" class="st1" d="M323.5,386.5c0-3.3,26.6-4.9,79.5-4.9c53,0,79.5,1.6,79.5,4.9"/>
	</g>
	<g id="g11">
		<path id="path10" pointer-events="stroke" class="st2" d="M380.5,275.8v173.5c0,6.7-3.3,10-10,10h-47.8"/>
		<path id="path11" pointer-events="all" class="st3" d="M317.5,459.3l7-3.5l-1.8,3.5l1.8,3.5L317.5,459.3z"/>
	</g>
	<g id="g13">
		<g id="g12" transform="translate(-0.5 -0.5)">
			<text transform="matrix(1 0 0 1 294.7366 337.8)" class="st4 st5">S</text>
			<text transform="matrix(1 0 0 1 302.0735 337.8)" class="st4 st5">Q</text>
			<text transform="matrix(1 0 0 1 310.6296 337.8)" class="st4 st5">L</text>
			<text transform="matrix(1 0 0 1 316.7473 337.8)" class="st4 st5"> </text>
			<text transform="matrix(1 0 0 1 319.8035 337.8)" class="st4 st5">Q</text>
			<text transform="matrix(1 0 0 1 328.3596 337.8)" class="st4 st5">u</text>
			<text transform="matrix(1 0 0 1 334.4773 337.8)" class="st4 st5">e</text>
			<text transform="matrix(1 0 0 1 340.595 337.8)" class="st4 st5">r</text>
			<text transform="matrix(1 0 0 1 344.2581 337.8)" class="st4 st5">y</text>
			<text transform="matrix(1 0 0 1 349.7581 337.8)" class="st4 st5"> </text>
			<text transform="matrix(1 0 0 1 352.8142 337.8)" class="st4 st5">C</text>
			<text transform="matrix(1 0 0 1 360.7581 337.8)" class="st4 st5">a</text>
			<text transform="matrix(1 0 0 1 366.8757 337.8)" class="st4 st5">l</text>
			<text transform="matrix(1 0 0 1 369.3196 337.8)" class="st4 st5">l</text>
			<text id="text11" transform="matrix(1 0 0 1 371.7634 337.8)" class="st4 st5">s</text>
		</g>
	</g>
	<g id="g14">
		<path id="path13" pointer-events="stroke" class="st2" d="M398.5,204V47.4c0-6.7-3.3-10-10-10h-33.9c-6.7,0-10,0.5-10,1.5v1.5"/>
		<path id="path14" pointer-events="all" class="st3" d="M398.5,210.8l-4.5-9l4.5,2.3l4.5-2.3L398.5,210.8z"/>
	</g>
	<g id="g16">
		<g id="g15" transform="translate(-0.5 -0.5)">
			<text transform="matrix(1 0 0 1 408.405 113.8)" class="st4 st5">P</text>
			<text transform="matrix(1 0 0 1 415.7419 113.8)" class="st4 st5">a</text>
			<text transform="matrix(1 0 0 1 421.8596 113.8)" class="st4 st5">g</text>
			<text transform="matrix(1 0 0 1 427.9773 113.8)" class="st4 st5">e</text>
			<text id="text14" transform="matrix(1 0 0 1 434.095 113.8)" class="st4 st5">s</text>
		</g>
	</g>
	<g id="g17">
		<path id="path16" pointer-events="stroke" class="st2" d="M474.8,262.5H624c6.7,0,10-1.4,10-4.1v-4.1"/>
		<path id="path17" pointer-events="all" class="st3" d="M634,247.5l4.5,9l-4.5-2.3l-4.5,2.3L634,247.5z"/>
	</g>
	<g id="g19">
		<g id="g18" transform="translate(-0.5 -0.5)">
			<text transform="matrix(1 0 0 1 524.2401 258.7999)" class="st4 st5">R</text>
			<text transform="matrix(1 0 0 1 532.184 258.7999)" class="st4 st5">e</text>
			<text transform="matrix(1 0 0 1 538.3016 258.7999)" class="st4 st5">s</text>
			<text transform="matrix(1 0 0 1 543.8016 258.7999)" class="st4 st5">p</text>
			<text transform="matrix(1 0 0 1 549.9193 258.7999)" class="st4 st5">o</text>
			<text transform="matrix(1 0 0 1 556.037 258.7999)" class="st4 st5">n</text>
			<text transform="matrix(1 0 0 1 562.1547 258.7999)" class="st4 st5">s</text>
			<text transform="matrix(1 0 0 1 567.6547 258.7999)" class="st4 st5">e</text>
		</g>
	</g>
	<g id="g20">
		<path id="path19" pointer-events="stroke" class="st2" d="M472.7,270.5h157.2c6.7,0,10,3.3,10,10v13.3"/>
		<path id="path20" pointer-events="all" class="st3" d="M639.9,300.6l-4.5-9l4.5,2.3l4.5-2.3L639.9,300.6z"/>
	</g>
	<g id="g22">
		<g id="g21" transform="translate(-0.5 -0.5)">
			<text transform="matrix(1 0 0 1 525.2401 284.7999)" class="st4 st5">R</text>
			<text transform="matrix(1 0 0 1 533.184 284.7999)" class="st4 st5">e</text>
			<text transform="matrix(1 0 0 1 539.3016 284.7999)" class="st4 st5">s</text>
			<text transform="matrix(1 0 0 1 544.8016 284.7999)" class="st4 st5">p</text>
			<text transform="matrix(1 0 0 1 550.9193 284.7999)" class="st4 st5">o</text>
			<text transform="matrix(1 0 0 1 557.037 284.7999)" class="st4 st5">n</text>
			<text transform="matrix(1 0 0 1 563.1547 284.7999)" class="st4 st5">s</text>
			<text transform="matrix(1 0 0 1 568.6547 284.7999)" class="st4 st5">e</text>
		</g>
	</g>
	<g id="g23">
		<ellipse id="ellipse22" pointer-events="all" class="st6" cx="425.5" cy="254" rx="50" ry="50"/>
		<ellipse id="ellipse23" pointer-events="all" class="st7" cx="425.5" cy="254" rx="46" ry="46"/>
	</g>
	<g id="g26">
		<path id="path25" pointer-events="stroke" class="st2" d="M636.4,188.7v-8.6c0-5.7-3.3-8.6-10-8.6H471.1c-6.7,0-10,3.3-10,10v28.7
			"/>
		<path id="path26" pointer-events="all" class="st3" d="M461.1,217l-4.5-9l4.5,2.3l4.5-2.3L461.1,217z"/>
	</g>
	<g id="g28">
		<g id="g27" transform="translate(-0.5 -0.5)">
			<text transform="matrix(1 0 0 1 521.7058 193.7999)" class="st4 st5">R</text>
			<text transform="matrix(1 0 0 1 529.6497 193.7999)" class="st4 st5">e</text>
			<text transform="matrix(1 0 0 1 535.7673 193.7999)" class="st4 st5">q</text>
			<text transform="matrix(1 0 0 1 541.885 193.7999)" class="st4 st5">u</text>
			<text transform="matrix(1 0 0 1 548.0027 193.7999)" class="st4 st5">e</text>
			<text transform="matrix(1 0 0 1 554.1204 193.7999)" class="st4 st5">s</text>
			<text transform="matrix(1 0 0 1 559.6204 193.7999)" class="st4 st5">t</text>
			<text transform="matrix(1 0 0 1 562.6765 193.7999)" class="st4 st5">e</text>
			<text id="text26" transform="matrix(1 0 0 1 568.7942 193.7999)" class="st4 st5">s</text>
		</g>
	</g>
	<g id="g29">
		<rect id="rect28" x="582.5" y="187.5" pointer-events="all" class="st6" width="103" height="56"/>
	</g>
	<g id="g31">
		<g id="g30" transform="translate(-0.5 -0.5)">
			<text transform="matrix(1 0 0 1 621.3258 220.9)" class="st4 st8">U</text>
			<text transform="matrix(1 0 0 1 629.9918 220.9)" class="st4 st8">s</text>
			<text transform="matrix(1 0 0 1 635.9918 220.9)" class="st4 st8">e</text>
			<text transform="matrix(1 0 0 1 642.6656 220.9)" class="st4 st8">r</text>
		</g>
	</g>
	<g id="g32">
		<path id="path31" pointer-events="stroke" class="st2" d="M268.5,537.3v42.2c0,6.7,3.3,10,10,10h259.7c6.7,0,10-3.3,10-10v-34.9"
			/>
		<path id="path32" pointer-events="all" class="st3" d="M548.2,539.3l3.5,7l-3.5-1.8l-3.5,1.8L548.2,539.3z"/>
	</g>
	<g id="g34">
		<g id="g33" transform="translate(-0.5 -0.5)">
			<text transform="matrix(1 0 0 1 383.3886 609.8)" class="st4 st5">D</text>
			<text transform="matrix(1 0 0 1 391.3324 609.8)" class="st4 st5">a</text>
			<text transform="matrix(1 0 0 1 397.4501 609.8)" class="st4 st5">t</text>
			<text transform="matrix(1 0 0 1 400.5063 609.8)" class="st4 st5">a</text>
		</g>
	</g>
	<g id="g35">
		<path id="path34" pointer-events="stroke" class="st2" d="M323.5,487.6h92.1c6.7,0,10-3.3,10-10l-0.1-167.2"/>
		<path id="path35" pointer-events="all" class="st3" d="M425.5,305.1l3.5,7l-3.5-1.8l-3.5,1.8L425.5,305.1z"/>
	</g>
	<g id="g37">
		<g id="g36" transform="translate(-0.5 -0.5)">
			<text transform="matrix(1 0 0 1 440.3886 463.8)" class="st4 st5">D</text>
			<text transform="matrix(1 0 0 1 448.3324 463.8)" class="st4 st5">a</text>
			<text transform="matrix(1 0 0 1 454.4501 463.8)" class="st4 st5">t</text>
			<text transform="matrix(1 0 0 1 457.5063 463.8)" class="st4 st5">a</text>
		</g>
	</g>
	<g id="g38">
		<ellipse id="ellipse37" pointer-events="all" class="st6" cx="273.5" cy="487.5" rx="50" ry="50"/>
		<ellipse id="ellipse38" pointer-events="all" class="st7" cx="273.5" cy="487.5" rx="46" ry="46"/>
	</g>
	<g id="g40">
		<g id="g39" transform="translate(-0.5 -0.5)">
			<text transform="matrix(1 0 0 1 239.4776 492.9001)" class="st4 st8">I</text>
			<text transform="matrix(1 0 0 1 242.8115 492.9001)" class="st4 st8">o</text>
			<text transform="matrix(1 0 0 1 249.4854 492.9001)" class="st4 st8">t</text>
			<text transform="matrix(1 0 0 1 252.8194 492.9001)" class="st4 st8"> </text>
			<text transform="matrix(1 0 0 1 256.1533 492.9001)" class="st4 st8">D</text>
			<text transform="matrix(1 0 0 1 264.8193 492.9001)" class="st4 st8">a</text>
			<text transform="matrix(1 0 0 1 271.4932 492.9001)" class="st4 st8">t</text>
			<text transform="matrix(1 0 0 1 274.8271 492.9001)" class="st4 st8">a</text>
			<text transform="matrix(1 0 0 1 281.501 492.9001)" class="st4 st8">b</text>
			<text transform="matrix(1 0 0 1 288.1748 492.9001)" class="st4 st8">a</text>
			<text transform="matrix(1 0 0 1 294.8486 492.9001)" class="st4 st8">s</text>
			<text transform="matrix(1 0 0 1 300.8486 492.9001)" class="st4 st8">e</text>
		</g>
	</g>
	<g id="g41">
		<path id="path40" pointer-events="stroke" class="st2" d="M500,512.3H329.8"/>
		<path id="path41" pointer-events="all" class="st3" d="M324.6,512.3l7-3.5l-1.8,3.5l1.8,3.5L324.6,512.3z"/>
	</g>
	<g id="g43">
		<g id="g42" transform="translate(-0.5 -0.5)">
			<text transform="matrix(1 0 0 1 385.3886 531.8)" class="st4 st5">D</text>
			<text transform="matrix(1 0 0 1 393.3324 531.8)" class="st4 st5">a</text>
			<text transform="matrix(1 0 0 1 399.4501 531.8)" class="st4 st5">t</text>
			<text transform="matrix(1 0 0 1 402.5063 531.8)" class="st4 st5">a</text>
		</g>
	</g>
	<g id="g44">
		<rect id="rect43" x="500" y="474.5" pointer-events="all" class="st0" width="96.5" height="63"/>
		<path id="path43" pointer-events="all" class="st2" d="M500,474.5h96.5 M596.5,537.5H500"/>
	</g>
	<g id="g46">
		<g id="g45" transform="translate(-0.5 -0.5)">
			<text transform="matrix(1 0 0 1 511.4805 511.9001)" class="st4 st8">D</text>
			<text transform="matrix(1 0 0 1 520.1465 511.9001)" class="st4 st8">a</text>
			<text transform="matrix(1 0 0 1 526.8203 511.9001)" class="st4 st8">t</text>
			<text transform="matrix(1 0 0 1 530.1543 511.9001)" class="st4 st8">a</text>
			<text transform="matrix(1 0 0 1 536.8281 511.9001)" class="st4 st8">b</text>
			<text transform="matrix(1 0 0 1 543.502 511.9001)" class="st4 st8">a</text>
			<text transform="matrix(1 0 0 1 550.1758 511.9001)" class="st4 st8">s</text>
			<text transform="matrix(1 0 0 1 556.1758 511.9001)" class="st4 st8">e</text>
			<text transform="matrix(1 0 0 1 562.8496 511.9001)" class="st4 st8"> </text>
			<text transform="matrix(1 0 0 1 566.1836 511.9001)" class="st4 st8">F</text>
			<text transform="matrix(1 0 0 1 573.5137 511.9001)" class="st4 st8">i</text>
			<text transform="matrix(1 0 0 1 576.1797 511.9001)" class="st4 st8">l</text>
			<text id="text44" transform="matrix(1 0 0 1 578.8457 511.9001)" class="st4 st8">e</text>
		</g>
	</g>
	<g id="g47">
		<rect id="rect46" x="256.5" y="12.5" pointer-events="all" class="st0" width="88.5" height="49"/>
		<path id="path46" pointer-events="all" class="st2" d="M256.5,12.5H345 M345,61.5h-88.5"/>
	</g>
	<g id="g49">
		<g id="g48" transform="translate(-0.5 -0.5)">
			<text transform="matrix(1 0 0 1 257.5 35.6999)" class="st4 st8">W</text>
			<text transform="matrix(1 0 0 1 268.8262 35.6999)" class="st4 st8">e</text>
			<text transform="matrix(1 0 0 1 275.5 35.6999)" class="st4 st8">b</text>
			<text transform="matrix(1 0 0 1 282.1738 35.6999)" class="st4 st8"> </text>
			<text transform="matrix(1 0 0 1 285.5078 35.6999)" class="st4 st8">s</text>
			<text transform="matrix(1 0 0 1 291.5078 35.6999)" class="st4 st8">i</text>
			<text transform="matrix(1 0 0 1 294.1738 35.6999)" class="st4 st8">t</text>
			<text transform="matrix(1 0 0 1 297.5078 35.6999)" class="st4 st8">e</text>
			<text transform="matrix(1 0 0 1 304.1816 35.6999)" class="st4 st8"> </text>
			<text transform="matrix(1 0 0 1 307.5156 35.6999)" class="st4 st8">o</text>
			<text transform="matrix(1 0 0 1 314.1895 35.6999)" class="st4 st8">n</text>
			<text transform="matrix(1 0 0 1 320.8633 35.6999)" class="st4 st8"> </text>
			<text transform="matrix(1 0 0 1 324.1973 35.6999)" class="st4 st8">d</text>
			<text transform="matrix(1 0 0 1 330.8711 35.6999)" class="st4 st8">i</text>
			<text transform="matrix(1 0 0 1 333.5371 35.6999)" class="st4 st8">s</text>
			<text transform="matrix(1 0 0 1 339.5371 35.6999)" class="st4 st8">k</text>
		</g>
	</g>
	<g id="g50">
		<path id="path49" pointer-events="stroke" class="st2" d="M596.5,331.6H471.1c-6.7,0-10-3.3-10-10v-23.8"/>
		<path id="path50" pointer-events="all" class="st3" d="M461.1,291l4.5,9l-4.5-2.3l-4.5,2.3L461.1,291z"/>
	</g>
	<g id="g52">
		<g id="g51" transform="translate(-0.5 -0.5)">
			<text transform="matrix(1 0 0 1 523.7058 323.8)" class="st4 st5">R</text>
			<text transform="matrix(1 0 0 1 531.6497 323.8)" class="st4 st5">e</text>
			<text transform="matrix(1 0 0 1 537.7673 323.8)" class="st4 st5">q</text>
			<text transform="matrix(1 0 0 1 543.885 323.8)" class="st4 st5">u</text>
			<text transform="matrix(1 0 0 1 550.0027 323.8)" class="st4 st5">e</text>
			<text transform="matrix(1 0 0 1 556.1204 323.8)" class="st4 st5">s</text>
			<text transform="matrix(1 0 0 1 561.6204 323.8)" class="st4 st5">t</text>
			<text transform="matrix(1 0 0 1 564.6765 323.8)" class="st4 st5">e</text>
			<text id="text50" transform="matrix(1 0 0 1 570.7942 323.8)" class="st4 st5">s</text>
		</g>
	</g>
	<g id="g53">
		<rect id="rect52" x="596.5" y="303.5" pointer-events="all" class="st6" width="103" height="56"/>
	</g>
	<g id="g55">
		<g id="g54" transform="translate(-0.5 -0.5)">
			<text transform="matrix(1 0 0 1 630.9932 336.9001)" class="st4 st8">A</text>
			<text transform="matrix(1 0 0 1 638.9971 336.9001)" class="st4 st8">d</text>
			<text transform="matrix(1 0 0 1 645.6709 336.9001)" class="st4 st8">m</text>
			<text transform="matrix(1 0 0 1 655.667 336.9001)" class="st4 st8">i</text>
			<text id="text53" transform="matrix(1 0 0 1 658.333 336.9001)" class="st4 st8">n</text>
		</g>
	</g>
	<g id="g56">
		<path id="path55" pointer-events="stroke" class="st1" d="M526.5,146.5c-12.6,0-18.9,35.8-18.9,107.5c0,71.7,6.3,107.5,18.9,107.5
			"/>
	</g>
	<g id="g58">
		<g id="g57" transform="translate(-0.5 -0.5)">
			<text transform="matrix(1 0 0 1 515.2294 143.7999)" class="st4 st5">U</text>
			<text transform="matrix(1 0 0 1 523.1732 143.7999)" class="st4 st5">s</text>
			<text transform="matrix(1 0 0 1 528.6732 143.7999)" class="st4 st5">e</text>
			<text transform="matrix(1 0 0 1 534.7909 143.7999)" class="st4 st5">r</text>
			<text transform="matrix(1 0 0 1 538.454 143.7999)" class="st4 st5"> </text>
			<text transform="matrix(1 0 0 1 541.5101 143.7999)" class="st4 st5">/</text>
			<text transform="matrix(1 0 0 1 544.5663 143.7999)" class="st4 st5"> </text>
			<text transform="matrix(1 0 0 1 547.6224 143.7999)" class="st4 st5">W</text>
			<text transform="matrix(1 0 0 1 558.0048 143.7999)" class="st4 st5">e</text>
			<text transform="matrix(1 0 0 1 564.1224 143.7999)" class="st4 st5">b</text>
			<text transform="matrix(1 0 0 1 570.2401 143.7999)" class="st4 st5"> </text>
			<text transform="matrix(1 0 0 1 573.2963 143.7999)" class="st4 st5">s</text>
			<text transform="matrix(1 0 0 1 578.7963 143.7999)" class="st4 st5">e</text>
			<text transform="matrix(1 0 0 1 584.9139 143.7999)" class="st4 st5">r</text>
			<text transform="matrix(1 0 0 1 588.577 143.7999)" class="st4 st5">v</text>
			<text transform="matrix(1 0 0 1 594.077 143.7999)" class="st4 st5">e</text>
			<text transform="matrix(1 0 0 1 600.1947 143.7999)" class="st4 st5">r</text>
			<text transform="matrix(1 0 0 1 603.8578 143.7999)" class="st4 st5"> </text>
			<text transform="matrix(1 0 0 1 606.9139 143.7999)" class="st4 st5">b</text>
			<text transform="matrix(1 0 0 1 613.0316 143.7999)" class="st4 st5">o</text>
			<text transform="matrix(1 0 0 1 619.1493 143.7999)" class="st4 st5">u</text>
			<text transform="matrix(1 0 0 1 625.267 143.7999)" class="st4 st5">n</text>
			<text transform="matrix(1 0 0 1 631.3846 143.7999)" class="st4 st5">d</text>
			<text transform="matrix(1 0 0 1 637.5023 143.7999)" class="st4 st5">a</text>
			<text transform="matrix(1 0 0 1 643.62 143.7999)" class="st4 st5">r</text>
			<text transform="matrix(1 0 0 1 647.2831 143.7999)" class="st4 st5">y</text>
		</g>
	</g>
	<g id="g60">
		<g id="g59" transform="translate(-0.5 -0.5)">
			<text transform="matrix(1 0 0 1 494.2913 401.8)" class="st4 st5">W</text>
			<text transform="matrix(1 0 0 1 504.6736 401.8)" class="st4 st5">e</text>
			<text transform="matrix(1 0 0 1 510.7913 401.8)" class="st4 st5">b</text>
			<text transform="matrix(1 0 0 1 516.9089 401.8)" class="st4 st5"> </text>
			<text transform="matrix(1 0 0 1 519.9651 401.8)" class="st4 st5">s</text>
			<text transform="matrix(1 0 0 1 525.4651 401.8)" class="st4 st5">e</text>
			<text transform="matrix(1 0 0 1 531.5828 401.8)" class="st4 st5">r</text>
			<text transform="matrix(1 0 0 1 535.2458 401.8)" class="st4 st5">v</text>
			<text transform="matrix(1 0 0 1 540.7458 401.8)" class="st4 st5">e</text>
			<text transform="matrix(1 0 0 1 546.8635 401.8)" class="st4 st5">r</text>
			<text transform="matrix(1 0 0 1 550.5266 401.8)" class="st4 st5"> </text>
			<text transform="matrix(1 0 0 1 553.5828 401.8)" class="st4 st5">/</text>
			<text transform="matrix(1 0 0 1 556.6389 401.8)" class="st4 st5"> </text>
			<text transform="matrix(1 0 0 1 559.6951 401.8)" class="st4 st5">D</text>
			<text transform="matrix(1 0 0 1 567.639 401.8)" class="st4 st5">a</text>
			<text transform="matrix(1 0 0 1 573.7566 401.8)" class="st4 st5">t</text>
			<text transform="matrix(1 0 0 1 576.8127 401.8)" class="st4 st5">a</text>
			<text transform="matrix(1 0 0 1 582.9304 401.8)" class="st4 st5">b</text>
			<text transform="matrix(1 0 0 1 589.0481 401.8)" class="st4 st5">a</text>
			<text transform="matrix(1 0 0 1 595.1658 401.8)" class="st4 st5">s</text>
			<text transform="matrix(1 0 0 1 600.6658 401.8)" class="st4 st5">e</text>
			<text transform="matrix(1 0 0 1 606.7835 401.8)" class="st4 st5"> </text>
			<text transform="matrix(1 0 0 1 609.8396 401.8)" class="st4 st5">b</text>
			<text transform="matrix(1 0 0 1 615.9573 401.8)" class="st4 st5">o</text>
			<text transform="matrix(1 0 0 1 622.075 401.8)" class="st4 st5">u</text>
			<text transform="matrix(1 0 0 1 628.1926 401.8)" class="st4 st5">n</text>
			<text transform="matrix(1 0 0 1 634.3103 401.8)" class="st4 st5">d</text>
			<text transform="matrix(1 0 0 1 640.428 401.8)" class="st4 st5">a</text>
			<text transform="matrix(1 0 0 1 646.5457 401.8)" class="st4 st5">r</text>
			<text transform="matrix(1 0 0 1 650.2087 401.8)" class="st4 st5">y</text>
		</g>
	</g>
	<g id="g61">
		<path id="path60" pointer-events="stroke" class="st1" d="M108.5,398.5c0,4,30,6,90,6s90-4.7,90-14"/>
	</g>
	<g id="g63">
		<g id="g62" transform="translate(-0.5 -0.5)">
			<text transform="matrix(1 0 0 1 55.8167 155.7999)" class="st4 st5">M</text>
			<text transform="matrix(1 0 0 1 64.9797 155.7999)" class="st4 st5">i</text>
			<text transform="matrix(1 0 0 1 67.4236 155.7999)" class="st4 st5">c</text>
			<text transform="matrix(1 0 0 1 72.9236 155.7999)" class="st4 st5">r</text>
			<text transform="matrix(1 0 0 1 76.5867 155.7999)" class="st4 st5">o</text>
			<text transform="matrix(1 0 0 1 82.7043 155.7999)" class="st4 st5">c</text>
			<text transform="matrix(1 0 0 1 88.2043 155.7999)" class="st4 st5">o</text>
			<text transform="matrix(1 0 0 1 94.322 155.7999)" class="st4 st5">n</text>
			<text transform="matrix(1 0 0 1 100.4397 155.7999)" class="st4 st5">t</text>
			<text transform="matrix(1 0 0 1 103.4958 155.7999)" class="st4 st5">r</text>
			<text transform="matrix(1 0 0 1 107.1589 155.7999)" class="st4 st5">o</text>
			<text transform="matrix(1 0 0 1 113.2766 155.7999)" class="st4 st5">l</text>
			<text transform="matrix(1 0 0 1 115.7205 155.7999)" class="st4 st5">a</text>
			<text transform="matrix(1 0 0 1 121.8381 155.7999)" class="st4 st5">d</text>
			<text transform="matrix(1 0 0 1 127.9558 155.7999)" class="st4 st5">o</text>
			<text transform="matrix(1 0 0 1 134.0735 155.7999)" class="st4 st5">r</text>
			<text transform="matrix(1 0 0 1 137.7366 155.7999)" class="st4 st5">/</text>
			<text transform="matrix(1 0 0 1 140.7927 155.7999)" class="st4 st5"> </text>
			<text transform="matrix(1 0 0 1 143.8489 155.7999)" class="st4 st5">G</text>
			<text transform="matrix(1 0 0 1 152.405 155.7999)" class="st4 st5">a</text>
			<text transform="matrix(1 0 0 1 158.5227 155.7999)" class="st4 st5">t</text>
			<text transform="matrix(1 0 0 1 161.5789 155.7999)" class="st4 st5">e</text>
			<text transform="matrix(1 0 0 1 167.6965 155.7999)" class="st4 st5">w</text>
			<text transform="matrix(1 0 0 1 175.6404 155.7999)" class="st4 st5">a</text>
			<text transform="matrix(1 0 0 1 181.7581 155.7999)" class="st4 st5">y</text>
			<text transform="matrix(1 0 0 1 187.2581 155.7999)" class="st4 st5"> </text>
			<text transform="matrix(1 0 0 1 190.3142 155.7999)" class="st4 st5">b</text>
			<text transform="matrix(1 0 0 1 196.4319 155.7999)" class="st4 st5">o</text>
			<text transform="matrix(1 0 0 1 202.5496 155.7999)" class="st4 st5">u</text>
			<text transform="matrix(1 0 0 1 208.6672 155.7999)" class="st4 st5">n</text>
			<text transform="matrix(1 0 0 1 214.7849 155.7999)" class="st4 st5">d</text>
			<text transform="matrix(1 0 0 1 220.9026 155.7999)" class="st4 st5">a</text>
			<text transform="matrix(1 0 0 1 227.0203 155.7999)" class="st4 st5">r</text>
			<text transform="matrix(1 0 0 1 230.6833 155.7999)" class="st4 st5">y</text>
		</g>
	</g>
	<g id="g64">
		<path id="path63" pointer-events="stroke" class="st2" d="M112.5,253.5l69.3-0.1"/>
		<path id="path64" pointer-events="all" class="st3" d="M187,253.4l-7,3.5l1.8-3.5l-1.8-3.5L187,253.4z"/>
	</g>
	<g id="g65">
		<ellipse id="ellipse64" pointer-events="all" class="st6" cx="62.5" cy="253.5" rx="50" ry="50"/>
		<ellipse id="ellipse65" pointer-events="all" class="st7" cx="62.5" cy="253.5" rx="46" ry="46"/>
	</g>
	<g id="g67">
		<g id="g66" transform="translate(-0.5 -0.5)">
			<text transform="matrix(1 0 0 1 21.54 258.7999)" class="st4 st5">M</text>
			<text transform="matrix(1 0 0 1 30.7031 258.7999)" class="st4 st5">i</text>
			<text transform="matrix(1 0 0 1 33.147 258.7999)" class="st4 st5">c</text>
			<text transform="matrix(1 0 0 1 38.647 258.7999)" class="st4 st5">r</text>
			<text transform="matrix(1 0 0 1 42.3101 258.7999)" class="st4 st5">o</text>
			<text transform="matrix(1 0 0 1 48.4277 258.7999)" class="st4 st5">c</text>
			<text transform="matrix(1 0 0 1 53.9277 258.7999)" class="st4 st5">o</text>
			<text transform="matrix(1 0 0 1 60.0454 258.7999)" class="st4 st5">n</text>
			<text transform="matrix(1 0 0 1 66.1631 258.7999)" class="st4 st5">t</text>
			<text transform="matrix(1 0 0 1 69.2192 258.7999)" class="st4 st5">r</text>
			<text transform="matrix(1 0 0 1 72.8823 258.7999)" class="st4 st5">o</text>
			<text transform="matrix(1 0 0 1 79 258.7999)" class="st4 st5">l</text>
			<text transform="matrix(1 0 0 1 81.4438 258.7999)" class="st4 st5">a</text>
			<text transform="matrix(1 0 0 1 87.5615 258.7999)" class="st4 st5">d</text>
			<text transform="matrix(1 0 0 1 93.6792 258.7999)" class="st4 st5">o</text>
			<text transform="matrix(1 0 0 1 99.7969 258.7999)" class="st4 st5">r</text>
		</g>
	</g>
	<g id="g68">
		<path id="path67" pointer-events="stroke" class="st1" d="M122.5,165.5c15.4,0,23.1,31.4,23.1,94.1s-7.7,94-23.1,93.9"/>
	</g>
	<g id="g69">
		<path id="path68" pointer-events="stroke" class="st2" d="M199.6,285.4v192.2c0,6.7,2.9,10,8.8,10h8.8"/>
		<path id="path69" pointer-events="all" class="st3" d="M222.4,487.6l-7,3.5l1.8-3.5l-1.8-3.5L222.4,487.6z"/>
	</g>
	<g id="g71">
		<g id="g70" transform="translate(-0.5 -0.5)">
			<text transform="matrix(1 0 0 1 114.7366 443.8)" class="st4 st5">S</text>
			<text transform="matrix(1 0 0 1 122.0735 443.8)" class="st4 st5">Q</text>
			<text transform="matrix(1 0 0 1 130.6296 443.8)" class="st4 st5">L</text>
			<text transform="matrix(1 0 0 1 136.7473 443.8)" class="st4 st5"> </text>
			<text transform="matrix(1 0 0 1 139.8035 443.8)" class="st4 st5">Q</text>
			<text transform="matrix(1 0 0 1 148.3596 443.8)" class="st4 st5">u</text>
			<text transform="matrix(1 0 0 1 154.4773 443.8)" class="st4 st5">e</text>
			<text transform="matrix(1 0 0 1 160.595 443.8)" class="st4 st5">r</text>
			<text transform="matrix(1 0 0 1 164.2581 443.8)" class="st4 st5">y</text>
			<text transform="matrix(1 0 0 1 169.7581 443.8)" class="st4 st5"> </text>
			<text transform="matrix(1 0 0 1 172.8142 443.8)" class="st4 st5">C</text>
			<text transform="matrix(1 0 0 1 180.7581 443.8)" class="st4 st5">a</text>
			<text transform="matrix(1 0 0 1 186.8757 443.8)" class="st4 st5">l</text>
			<text transform="matrix(1 0 0 1 189.3196 443.8)" class="st4 st5">l</text>
			<text id="text69" transform="matrix(1 0 0 1 191.7634 443.8)" class="st4 st5">s</text>
		</g>
	</g>
	<g id="g72">
		<path id="path71" pointer-events="stroke" class="st1" d="M323.5,386.5c0-3.3,26.6-4.9,79.5-4.9c53,0,79.5,1.6,79.5,4.9"/>
	</g>
	<g id="g73">
		<path id="path72" pointer-events="stroke" class="st2" d="M380.5,275.8v173.5c0,6.7-3.3,10-10,10h-47.8"/>
		<path id="path73" pointer-events="all" class="st3" d="M317.5,459.3l7-3.5l-1.8,3.5l1.8,3.5L317.5,459.3z"/>
	</g>
	<g id="g75">
		<g id="g74" transform="translate(-0.5 -0.5)">
			<text transform="matrix(1 0 0 1 294.7366 337.8)" class="st4 st5">S</text>
			<text transform="matrix(1 0 0 1 302.0735 337.8)" class="st4 st5">Q</text>
			<text transform="matrix(1 0 0 1 310.6296 337.8)" class="st4 st5">L</text>
			<text transform="matrix(1 0 0 1 316.7473 337.8)" class="st4 st5"> </text>
			<text transform="matrix(1 0 0 1 319.8035 337.8)" class="st4 st5">Q</text>
			<text transform="matrix(1 0 0 1 328.3596 337.8)" class="st4 st5">u</text>
			<text transform="matrix(1 0 0 1 334.4773 337.8)" class="st4 st5">e</text>
			<text transform="matrix(1 0 0 1 340.595 337.8)" class="st4 st5">r</text>
			<text transform="matrix(1 0 0 1 344.2581 337.8)" class="st4 st5">y</text>
			<text transform="matrix(1 0 0 1 349.7581 337.8)" class="st4 st5"> </text>
			<text transform="matrix(1 0 0 1 352.8142 337.8)" class="st4 st5">C</text>
			<text transform="matrix(1 0 0 1 360.7581 337.8)" class="st4 st5">a</text>
			<text transform="matrix(1 0 0 1 366.8757 337.8)" class="st4 st5">l</text>
			<text transform="matrix(1 0 0 1 369.3196 337.8)" class="st4 st5">l</text>
			<text id="text73" transform="matrix(1 0 0 1 371.7634 337.8)" class="st4 st5">s</text>
		</g>
	</g>
	<g id="g76">
		<path id="path75" pointer-events="stroke" class="st2" d="M398.5,204V47.4c0-6.7-3.3-10-10-10h-33.9c-6.7,0-10,0.5-10,1.5v1.5"/>
		<path id="path76" pointer-events="all" class="st3" d="M398.5,210.8l-4.5-9l4.5,2.3l4.5-2.3L398.5,210.8z"/>
	</g>
	<g id="g78">
		<g id="g77" transform="translate(-0.5 -0.5)">
			<text transform="matrix(1 0 0 1 408.405 113.8)" class="st4 st5">P</text>
			<text transform="matrix(1 0 0 1 415.7419 113.8)" class="st4 st5">a</text>
			<text transform="matrix(1 0 0 1 421.8596 113.8)" class="st4 st5">g</text>
			<text transform="matrix(1 0 0 1 427.9773 113.8)" class="st4 st5">e</text>
			<text id="text76" transform="matrix(1 0 0 1 434.095 113.8)" class="st4 st5">s</text>
		</g>
	</g>
	<g id="g79">
		<path id="path78" pointer-events="stroke" class="st2" d="M474.8,262.5H624c6.7,0,10-1.4,10-4.1v-4.1"/>
		<path id="path79" pointer-events="all" class="st3" d="M634,247.5l4.5,9l-4.5-2.3l-4.5,2.3L634,247.5z"/>
	</g>
	<g id="g81">
		<g id="g80" transform="translate(-0.5 -0.5)">
			<text transform="matrix(1 0 0 1 524.2401 258.7999)" class="st4 st5">R</text>
			<text transform="matrix(1 0 0 1 532.184 258.7999)" class="st4 st5">e</text>
			<text transform="matrix(1 0 0 1 538.3016 258.7999)" class="st4 st5">s</text>
			<text transform="matrix(1 0 0 1 543.8016 258.7999)" class="st4 st5">p</text>
			<text transform="matrix(1 0 0 1 549.9193 258.7999)" class="st4 st5">o</text>
			<text transform="matrix(1 0 0 1 556.037 258.7999)" class="st4 st5">n</text>
			<text transform="matrix(1 0 0 1 562.1547 258.7999)" class="st4 st5">s</text>
			<text transform="matrix(1 0 0 1 567.6547 258.7999)" class="st4 st5">e</text>
		</g>
	</g>
	<g id="g82">
		<path id="path81" pointer-events="stroke" class="st2" d="M472.7,270.5h157.2c6.7,0,10,3.3,10,10v13.3"/>
		<path id="path82" pointer-events="all" class="st3" d="M639.9,300.6l-4.5-9l4.5,2.3l4.5-2.3L639.9,300.6z"/>
	</g>
	<g id="g84">
		<g id="g83" transform="translate(-0.5 -0.5)">
			<text transform="matrix(1 0 0 1 525.2401 284.7999)" class="st4 st5">R</text>
			<text transform="matrix(1 0 0 1 533.184 284.7999)" class="st4 st5">e</text>
			<text transform="matrix(1 0 0 1 539.3016 284.7999)" class="st4 st5">s</text>
			<text transform="matrix(1 0 0 1 544.8016 284.7999)" class="st4 st5">p</text>
			<text transform="matrix(1 0 0 1 550.9193 284.7999)" class="st4 st5">o</text>
			<text transform="matrix(1 0 0 1 557.037 284.7999)" class="st4 st5">n</text>
			<text transform="matrix(1 0 0 1 563.1547 284.7999)" class="st4 st5">s</text>
			<text transform="matrix(1 0 0 1 568.6547 284.7999)" class="st4 st5">e</text>
		</g>
	</g>
	<g id="g85">
		<path id="path84" pointer-events="stroke" class="st2" d="M636.4,188.7v-8.6c0-5.7-3.3-8.6-10-8.6H471.1c-6.7,0-10,3.3-10,10v28.7
			"/>
		<path id="path85" pointer-events="all" class="st3" d="M461.1,217l-4.5-9l4.5,2.3l4.5-2.3L461.1,217z"/>
	</g>
	<g id="g87">
		<g id="g86" transform="translate(-0.5 -0.5)">
			<text transform="matrix(1 0 0 1 521.7058 193.7999)" class="st4 st5">R</text>
			<text transform="matrix(1 0 0 1 529.6497 193.7999)" class="st4 st5">e</text>
			<text transform="matrix(1 0 0 1 535.7673 193.7999)" class="st4 st5">q</text>
			<text transform="matrix(1 0 0 1 541.885 193.7999)" class="st4 st5">u</text>
			<text transform="matrix(1 0 0 1 548.0027 193.7999)" class="st4 st5">e</text>
			<text transform="matrix(1 0 0 1 554.1204 193.7999)" class="st4 st5">s</text>
			<text transform="matrix(1 0 0 1 559.6204 193.7999)" class="st4 st5">t</text>
			<text transform="matrix(1 0 0 1 562.6765 193.7999)" class="st4 st5">e</text>
			<text id="text85" transform="matrix(1 0 0 1 568.7942 193.7999)" class="st4 st5">s</text>
		</g>
	</g>
	<g id="g88">
		<path id="path87" pointer-events="stroke" class="st2" d="M268.5,537.3v42.2c0,6.7,3.3,10,10,10h259.7c6.7,0,10-3.3,10-10v-34.9"
			/>
		<path id="path88" pointer-events="all" class="st3" d="M548.2,539.3l3.5,7l-3.5-1.8l-3.5,1.8L548.2,539.3z"/>
	</g>
	<g id="g90">
		<g id="g89" transform="translate(-0.5 -0.5)">
			<text transform="matrix(1 0 0 1 383.3886 609.8)" class="st4 st5">D</text>
			<text transform="matrix(1 0 0 1 391.3324 609.8)" class="st4 st5">a</text>
			<text transform="matrix(1 0 0 1 397.4501 609.8)" class="st4 st5">t</text>
			<text transform="matrix(1 0 0 1 400.5063 609.8)" class="st4 st5">a</text>
		</g>
	</g>
	<g id="g91">
		<path id="path90" pointer-events="stroke" class="st2" d="M323.5,487.6h92.1c6.7,0,10-3.3,10-10l-0.1-167.2"/>
		<path id="path91" pointer-events="all" class="st3" d="M425.5,305.1l3.5,7l-3.5-1.8l-3.5,1.8L425.5,305.1z"/>
	</g>
	<g id="g93">
		<g id="g92" transform="translate(-0.5 -0.5)">
			<text transform="matrix(1 0 0 1 440.3886 463.8)" class="st4 st5">D</text>
			<text transform="matrix(1 0 0 1 448.3324 463.8)" class="st4 st5">a</text>
			<text transform="matrix(1 0 0 1 454.4501 463.8)" class="st4 st5">t</text>
			<text transform="matrix(1 0 0 1 457.5063 463.8)" class="st4 st5">a</text>
		</g>
	</g>
	<g id="g94">
		<path id="path93" pointer-events="stroke" class="st2" d="M500,512.3H329.8"/>
		<path id="path94" pointer-events="all" class="st3" d="M324.6,512.3l7-3.5l-1.8,3.5l1.8,3.5L324.6,512.3z"/>
	</g>
	<g id="g96">
		<g id="g95" transform="translate(-0.5 -0.5)">
			<text transform="matrix(1 0 0 1 385.3886 531.8)" class="st4 st5">D</text>
			<text transform="matrix(1 0 0 1 393.3324 531.8)" class="st4 st5">a</text>
			<text transform="matrix(1 0 0 1 399.4501 531.8)" class="st4 st5">t</text>
			<text transform="matrix(1 0 0 1 402.5063 531.8)" class="st4 st5">a</text>
		</g>
	</g>
	<g id="g97">
		<path id="path96" pointer-events="stroke" class="st2" d="M596.5,331.6H471.1c-6.7,0-10-3.3-10-10v-23.8"/>
		<path id="path97" pointer-events="all" class="st3" d="M461.1,291l4.5,9l-4.5-2.3l-4.5,2.3L461.1,291z"/>
	</g>
	<g id="g99">
		<g id="g98" transform="translate(-0.5 -0.5)">
			<text transform="matrix(1 0 0 1 523.7058 323.8)" class="st4 st5">R</text>
			<text transform="matrix(1 0 0 1 531.6497 323.8)" class="st4 st5">e</text>
			<text transform="matrix(1 0 0 1 537.7673 323.8)" class="st4 st5">q</text>
			<text transform="matrix(1 0 0 1 543.885 323.8)" class="st4 st5">u</text>
			<text transform="matrix(1 0 0 1 550.0027 323.8)" class="st4 st5">e</text>
			<text transform="matrix(1 0 0 1 556.1204 323.8)" class="st4 st5">s</text>
			<text transform="matrix(1 0 0 1 561.6204 323.8)" class="st4 st5">t</text>
			<text transform="matrix(1 0 0 1 564.6765 323.8)" class="st4 st5">e</text>
			<text id="text97" transform="matrix(1 0 0 1 570.7942 323.8)" class="st4 st5">s</text>
		</g>
	</g>
	<g id="g100">
		<path id="path99" pointer-events="stroke" class="st1" d="M526.5,146.5c-12.6,0-18.9,35.8-18.9,107.5c0,71.7,6.3,107.5,18.9,107.5
			"/>
	</g>
	<g id="g102">
		<g id="g101" transform="translate(-0.5 -0.5)">
			<text transform="matrix(1 0 0 1 515.2294 143.7999)" class="st4 st5">U</text>
			<text transform="matrix(1 0 0 1 523.1732 143.7999)" class="st4 st5">s</text>
			<text transform="matrix(1 0 0 1 528.6732 143.7999)" class="st4 st5">e</text>
			<text transform="matrix(1 0 0 1 534.7909 143.7999)" class="st4 st5">r</text>
			<text transform="matrix(1 0 0 1 538.454 143.7999)" class="st4 st5"> </text>
			<text transform="matrix(1 0 0 1 541.5101 143.7999)" class="st4 st5">/</text>
			<text transform="matrix(1 0 0 1 544.5663 143.7999)" class="st4 st5"> </text>
			<text transform="matrix(1 0 0 1 547.6224 143.7999)" class="st4 st5">W</text>
			<text transform="matrix(1 0 0 1 558.0048 143.7999)" class="st4 st5">e</text>
			<text transform="matrix(1 0 0 1 564.1224 143.7999)" class="st4 st5">b</text>
			<text transform="matrix(1 0 0 1 570.2401 143.7999)" class="st4 st5"> </text>
			<text transform="matrix(1 0 0 1 573.2963 143.7999)" class="st4 st5">s</text>
			<text transform="matrix(1 0 0 1 578.7963 143.7999)" class="st4 st5">e</text>
			<text transform="matrix(1 0 0 1 584.9139 143.7999)" class="st4 st5">r</text>
			<text transform="matrix(1 0 0 1 588.577 143.7999)" class="st4 st5">v</text>
			<text transform="matrix(1 0 0 1 594.077 143.7999)" class="st4 st5">e</text>
			<text transform="matrix(1 0 0 1 600.1947 143.7999)" class="st4 st5">r</text>
			<text transform="matrix(1 0 0 1 603.8578 143.7999)" class="st4 st5"> </text>
			<text transform="matrix(1 0 0 1 606.9139 143.7999)" class="st4 st5">b</text>
			<text transform="matrix(1 0 0 1 613.0316 143.7999)" class="st4 st5">o</text>
			<text transform="matrix(1 0 0 1 619.1493 143.7999)" class="st4 st5">u</text>
			<text transform="matrix(1 0 0 1 625.267 143.7999)" class="st4 st5">n</text>
			<text transform="matrix(1 0 0 1 631.3846 143.7999)" class="st4 st5">d</text>
			<text transform="matrix(1 0 0 1 637.5023 143.7999)" class="st4 st5">a</text>
			<text transform="matrix(1 0 0 1 643.62 143.7999)" class="st4 st5">r</text>
			<text transform="matrix(1 0 0 1 647.2831 143.7999)" class="st4 st5">y</text>
		</g>
	</g>
	<g id="g103">
		<path id="path102" pointer-events="stroke" class="st1" d="M108.5,398.5c0,4,30,6,90,6s90-4.7,90-14"/>
	</g>
	<g id="g104">
		<path id="path103" pointer-events="stroke" class="st2" d="M112.5,253.5l69.3-0.1"/>
		<path id="path104" pointer-events="all" class="st3" d="M187,253.4l-7,3.5l1.8-3.5l-1.8-3.5L187,253.4z"/>
	</g>
</g>
<a id="a106" transform="translate(0,-5)">
</a>
<text transform="matrix(1 0 0 1 392.0547 249.9592)" class="st4 st8">Iot Website</text>
<text transform="matrix(1 0 0 1 395.6114 265.0687)" class="st4 st8">/ Node JS</text>
<text transform="matrix(1 0 0 1 214.6999 238.9899)" class="st4 st8">Gateway</text>
<text transform="matrix(1 0 0 1 226.3747 254.0993)" class="st4 st8">/ OS</text>
<text transform="matrix(1 0 0 1 198.8181 269.2087)" class="st4 st8">/ Broker MQTT </text>
<path class="st0" d="z"/>
</svg>
